<svg width="40" height="40" viewBox="0 0 40 40" fill="none" xmlns="http://www.w3.org/2000/svg">
<circle cx="20" cy="20" r="20" fill="#E6F1ED"/>
<path d="M18.9932 29.1066H18.9929C18.7367 29.1067 18.4737 29.0012 18.2605 28.7842C18.2293 28.7524 18.1995 28.7186 18.1714 28.6829H21.8287C21.8197 28.6943 21.8105 28.7056 21.8011 28.7167C21.6043 28.9497 21.3523 29.0772 21.1015 29.1025L20.9906 29.1066H18.9932ZM20.0001 9.89341H20.0001C21.5685 9.89338 23.0933 10.5613 24.2479 11.7859C25.4034 13.0115 26.0934 14.6971 26.1512 16.4925L26.155 16.7436V20.8971V21.0909L26.2354 21.2674L28.07 25.295L28.07 25.295C28.094 25.3476 28.1076 25.4101 28.1065 25.476C28.1054 25.5419 28.0896 25.6031 28.0644 25.6536C28.0393 25.704 28.0077 25.7382 27.979 25.7592C27.9567 25.7754 27.9362 25.7839 27.9188 25.7878L27.8667 25.7908H12.1079H12.1076C12.0884 25.7908 12.0652 25.786 12.039 25.7709C12.0122 25.7555 11.9805 25.7281 11.9527 25.6839C11.9246 25.6395 11.9035 25.5826 11.8962 25.5177C11.8895 25.4583 11.8951 25.3991 11.9112 25.3453L11.939 25.2756L13.7648 21.2674L13.8451 21.0909V20.8971V16.7368C13.8451 14.8964 14.512 13.1461 15.6766 11.8677C16.8387 10.5921 18.396 9.89341 20.0001 9.89341Z" stroke="#016B45" stroke-width="1.78682"/>
</svg>
