<svg width="18" height="24" viewBox="0 0 18 24" fill="none" xmlns="http://www.w3.org/2000/svg">
<g clip-path="url(#clip0_691_23)">
<path d="M17.0317 20.9753C17.4306 21.3181 17.6523 21.7692 17.6301 22.2384C17.6301 22.7076 17.4084 23.1407 16.9873 23.4835C16.5884 23.8083 16.0343 24.0068 15.458 24.0068C14.8817 24.0068 14.3276 23.8444 13.9065 23.5196L1.36151 13.3061C1.16204 13.1437 1.00689 12.9452 0.896064 12.7286C0.785243 12.5121 0.71875 12.2775 0.71875 12.0429C0.71875 11.8083 0.785243 11.5738 0.896064 11.3392C1.00689 11.1226 1.16204 10.9241 1.36151 10.7617L13.9065 0.548189C14.106 0.385783 14.3498 0.241422 14.6158 0.151197C14.9039 0.0609713 15.192 0.00683594 15.4802 0.00683594C15.7683 0.00683594 16.0786 0.0429262 16.3446 0.133152C16.6105 0.223377 16.8543 0.367738 17.076 0.530144C17.2755 0.69255 17.4306 0.909092 17.5414 1.12563C17.6744 1.34217 17.7187 1.57676 17.7187 1.82939C17.7187 2.06398 17.6523 2.29857 17.5414 2.51511C17.4306 2.73165 17.2533 2.93014 17.0317 3.1106L6.06034 12.0429L8.14378 13.7211L17.0317 20.9753Z" fill="black"/>
</g>
<defs>
<clipPath id="clip0_691_23">
<rect width="17" height="24" fill="white" transform="translate(0.71875 0.0078125)"/>
</clipPath>
</defs>
</svg>
