<svg width="18" height="24" viewBox="0 0 18 24" fill="none" xmlns="http://www.w3.org/2000/svg">
<g clip-path="url(#clip0_691_24)">
<path d="M1.09334 20.9753C0.694386 21.3181 0.472743 21.7692 0.494907 22.2384C0.494907 22.7076 0.71655 23.1407 1.13767 23.4835C1.53663 23.8083 2.09074 24.0068 2.66701 24.0068C3.24328 24.0068 3.79739 23.8444 4.21851 23.5196L16.7635 13.3061C16.963 13.1437 17.1181 12.9452 17.2289 12.7286C17.3398 12.5121 17.4062 12.2775 17.4062 12.0429C17.4062 11.8083 17.3398 11.5738 17.2289 11.3392C17.1181 11.1226 16.963 10.9241 16.7635 10.7617L4.21851 0.548189C4.01903 0.385783 3.77522 0.241422 3.50925 0.151197C3.22111 0.0609713 2.93298 0.00683594 2.64484 0.00683594C2.35671 0.00683594 2.04641 0.0429262 1.78044 0.133152C1.51446 0.223377 1.27066 0.367738 1.04901 0.530144C0.849536 0.69255 0.694386 0.909092 0.583564 1.12563C0.450579 1.34217 0.40625 1.57676 0.40625 1.82939C0.40625 2.06398 0.472743 2.29857 0.583564 2.51511C0.694386 2.73165 0.8717 2.93014 1.09334 3.1106L12.0647 12.0429L9.98122 13.7211L1.09334 20.9753Z" fill="black"/>
</g>
<defs>
<clipPath id="clip0_691_24">
<rect width="17" height="24" fill="white" transform="matrix(-1 0 0 1 17.4062 0.0078125)"/>
</clipPath>
</defs>
</svg>
