<svg width="24" height="24" viewBox="0 0 24 24" fill="none" xmlns="http://www.w3.org/2000/svg">
<g clip-path="url(#clip0_681_22)">
<path d="M17.4946 15.4901C18.9103 13.5583 19.5443 11.1632 19.2699 8.78402C18.9955 6.4048 17.8329 4.21693 16.0147 2.6581C14.1964 1.09928 11.8566 0.284467 9.46344 0.376682C7.07023 0.468896 4.80009 1.46134 3.10719 3.15545C1.41428 4.84957 0.423467 7.12042 0.332965 9.51369C0.242463 11.907 1.05895 14.2462 2.61907 16.0633C4.1792 17.8804 6.36791 19.0415 8.74732 19.3142C11.1267 19.5869 13.5214 18.9511 15.4521 17.534H15.4507C15.4936 17.5925 15.5413 17.6485 15.594 17.7022L21.2227 23.3309C21.4969 23.6053 21.8688 23.7595 22.2566 23.7596C22.6444 23.7598 23.0164 23.6058 23.2908 23.3317C23.5651 23.0575 23.7193 22.6856 23.7195 22.2978C23.7196 21.91 23.5657 21.538 23.2915 21.2636L17.6627 15.6348C17.6105 15.5819 17.5543 15.5345 17.4946 15.4901ZM17.8718 9.87008C17.8718 10.9261 17.6638 11.9717 17.2597 12.9473C16.8556 13.9229 16.2633 14.8093 15.5166 15.556C14.7699 16.3027 13.8835 16.895 12.9079 17.2991C11.9323 17.7032 10.8866 17.9112 9.83065 17.9112C8.77467 17.9112 7.72903 17.7032 6.75344 17.2991C5.77784 16.895 4.89139 16.3027 4.1447 15.556C3.39802 14.8093 2.80571 13.9229 2.40161 12.9473C1.9975 11.9717 1.78951 10.9261 1.78951 9.87008C1.78951 7.73744 2.6367 5.69215 4.14471 4.18414C5.65271 2.67614 7.69801 1.82895 9.83065 1.82895C11.9633 1.82895 14.0086 2.67614 15.5166 4.18414C17.0246 5.69215 17.8718 7.73744 17.8718 9.87008Z" fill="#016B45"/>
</g>
<defs>
<clipPath id="clip0_681_22">
<rect width="23.3924" height="23.3924" fill="white" transform="translate(0.328125 0.367188)"/>
</clipPath>
</defs>
</svg>
