<svg width="20" height="12" viewBox="0 0 20 12" fill="none" xmlns="http://www.w3.org/2000/svg">
<path fill-rule="evenodd" clip-rule="evenodd" d="M18.7481 0.356445H17.5765C16.9295 0.356445 16.4049 0.831645 16.4049 1.41783V10.6165C16.4049 11.2027 16.9295 11.6779 17.5765 11.6779H18.7481C19.3951 11.6779 19.9196 11.2027 19.9196 10.6165V1.41783C19.9196 0.831645 19.3951 0.356445 18.7481 0.356445ZM12.1082 2.83302H13.2798C13.9268 2.83302 14.4514 3.30822 14.4514 3.89441V10.6165C14.4514 11.2027 13.9268 11.6779 13.2798 11.6779H12.1082C11.4611 11.6779 10.9366 11.2027 10.9366 10.6165V3.89441C10.9366 3.30822 11.4611 2.83302 12.1082 2.83302ZM7.81151 5.30956H6.63994C5.99289 5.30956 5.46836 5.78476 5.46836 6.37095V10.6165C5.46836 11.2027 5.99289 11.6779 6.63994 11.6779H7.81151C8.45856 11.6779 8.98309 11.2027 8.98309 10.6165V6.37095C8.98309 5.78476 8.45856 5.30956 7.81151 5.30956ZM2.3432 7.43233H1.1716C0.524543 7.43233 0 7.90753 0 8.49372V10.6165C0 11.2027 0.524543 11.6779 1.1716 11.6779H2.3432C2.99026 11.6779 3.5148 11.2027 3.5148 10.6165V8.49372C3.5148 7.90753 2.99026 7.43233 2.3432 7.43233Z" fill="white"/>
</svg>
