<svg width="48" height="48" viewBox="0 0 48 48" fill="none" xmlns="http://www.w3.org/2000/svg">
<rect width="48" height="48" rx="24" fill="#9CCC7F"/>
<path d="M40.2518 24.4337C40.2518 15.6975 33.1856 8.61548 24.469 8.61548C21.7664 8.61548 19.2186 9.29792 16.9909 10.5001C14.8999 11.6309 13.0891 13.2182 11.6924 15.1446V10.122H8.68613V20.6674H19.208V17.6544H13.6269C14.8076 15.7633 16.4584 14.2121 18.4174 13.153C20.2769 12.1489 22.3567 11.6249 24.469 11.6285C26.9384 11.6289 29.3549 12.3465 31.4259 13.6945C33.4969 15.0426 35.1338 16.9632 36.1384 19.2241C37.1431 21.485 37.4724 23.9893 37.0867 26.4339C36.701 28.8785 35.6166 31.1587 33.9649 32.9985C32.3132 34.8384 30.1649 36.1591 27.7799 36.8009C25.3949 37.4426 22.8754 37.3779 20.5264 36.6146C18.1773 35.8513 16.0993 34.422 14.5438 32.4998C12.9882 30.5775 12.0218 28.2447 11.7615 25.7835L11.6052 24.2845L8.61548 24.5994L8.7718 26.0968C9.60303 34.0511 16.3115 40.2518 24.469 40.2518C33.1856 40.2518 40.2518 33.1698 40.2518 24.4337ZM22.9659 15.3947V25.0573L28.2268 30.3301L30.3522 28.1999L25.9721 23.81V15.3947H22.9659Z" fill="white"/>
</svg>
