<svg width="22" height="21" viewBox="0 0 22 21" fill="none" xmlns="http://www.w3.org/2000/svg">
<g clip-path="url(#clip0_10_2067)">
<path d="M10.9999 0.466553C5.45866 0.466553 0.966553 4.95866 0.966553 10.4999C0.966553 16.0414 5.45866 20.5332 10.9999 20.5332C16.5414 20.5332 21.0332 16.0414 21.0332 10.4999C21.0332 4.95866 16.5414 0.466553 10.9999 0.466553ZM10.9999 19.2988C6.15912 19.2988 2.22072 15.3407 2.22072 10.4998C2.22072 5.65908 6.15912 1.72068 10.9999 1.72068C15.8407 1.72068 19.7791 5.6591 19.7791 10.4998C19.7791 15.3406 15.8407 19.2988 10.9999 19.2988ZM15.3895 9.8728H11.627V6.1103C11.627 5.76415 11.346 5.48322 10.9999 5.48322C10.6537 5.48322 10.3728 5.76415 10.3728 6.1103V9.8728H6.6103C6.26415 9.8728 5.98322 10.1537 5.98322 10.4999C5.98322 10.846 6.26415 11.127 6.6103 11.127H10.3728V14.8895C10.3728 15.2356 10.6537 15.5166 10.9999 15.5166C11.346 15.5166 11.627 15.2356 11.627 14.8895V11.127H15.3895C15.7356 11.127 16.0166 10.846 16.0166 10.4999C16.0166 10.1537 15.7356 9.8728 15.3895 9.8728Z" fill="#016B45"/>
</g>
<defs>
<clipPath id="clip0_10_2067">
<rect width="20.0667" height="20.0667" fill="white" transform="translate(0.966553 0.466553)"/>
</clipPath>
</defs>
</svg>
