<svg width="36" height="41" viewBox="0 0 36 41" fill="none" xmlns="http://www.w3.org/2000/svg">
<path d="M33.6287 9.8592L18.8084 1.25388C18.4124 1.02169 17.9674 0.899902 17.515 0.899902C17.0626 0.899902 16.6175 1.02169 16.2216 1.25388L1.4012 9.86277C0.977956 10.1085 0.62465 10.4703 0.378175 10.9105C0.131699 11.3506 0.00109512 11.8529 0 12.3648V29.4575C0.00109512 29.9695 0.131699 30.4718 0.378175 30.9119C0.62465 31.352 0.977956 31.7138 1.4012 31.9596L16.2216 40.5685C16.6175 40.8006 17.0626 40.9224 17.515 40.9224C17.9674 40.9224 18.4124 40.8006 18.8084 40.5685L33.6287 31.9596C34.052 31.7138 34.4053 31.352 34.6518 30.9119C34.8982 30.4718 35.0288 29.9695 35.0299 29.4575V12.3666C35.0298 11.8537 34.8996 11.3503 34.6531 10.9092C34.4065 10.468 34.0527 10.1054 33.6287 9.8592ZM17.515 3.75595L31.047 11.6196L26.0316 14.5309L12.4996 6.66728L17.515 3.75595ZM17.515 19.4832L3.98297 11.6196L9.69386 8.30077L23.2259 16.1644L17.515 19.4832ZM32.3353 29.4647L18.8623 37.2908V21.9549L24.2515 18.8255V25.2022C24.2515 25.5814 24.3934 25.9451 24.6461 26.2132C24.8988 26.4813 25.2415 26.632 25.5988 26.632C25.9561 26.632 26.2988 26.4813 26.5515 26.2132C26.8042 25.9451 26.9461 25.5814 26.9461 25.2022V17.2599L32.3353 14.1306V29.4575V29.4647Z" fill="white"/>
</svg>
