<svg width="27" height="39" viewBox="0 0 27 39" fill="none" xmlns="http://www.w3.org/2000/svg">
<path d="M13.5 0.961426C15.4072 0.961426 17.2715 1.50601 18.8573 2.5263C20.443 3.5466 21.679 4.99679 22.4088 6.69348C23.1387 8.39017 23.3296 10.2572 22.9576 12.0584C22.5855 13.8596 21.6671 15.5141 20.3185 16.8127C18.97 18.1112 17.2518 18.9956 15.3812 19.3539C13.5107 19.7122 11.5718 19.5283 9.80984 18.8255C8.04784 18.1227 6.54183 16.9326 5.48226 15.4056C4.42269 13.8786 3.85714 12.0833 3.85714 10.2469L3.86679 9.84387C3.97463 7.45334 5.03667 5.19517 6.83143 3.54029C8.62619 1.8854 11.0151 0.961564 13.5 0.961426ZM17.3571 23.2465C19.9146 23.2465 22.3673 24.2248 24.1757 25.9661C25.9841 27.7075 27 30.0693 27 32.5319V34.389C27 35.3741 26.5936 36.3188 25.8703 37.0153C25.1469 37.7119 24.1658 38.1032 23.1429 38.1032H3.85714C2.83416 38.1032 1.85309 37.7119 1.12973 37.0153C0.406376 36.3188 0 35.3741 0 34.389V32.5319C0 30.0693 1.01594 27.7075 2.82433 25.9661C4.63271 24.2248 7.08541 23.2465 9.64286 23.2465H17.3571Z" fill="white"/>
</svg>
