<svg width="29" height="35" viewBox="0 0 29 35" fill="none" xmlns="http://www.w3.org/2000/svg">
<path d="M13.6471 34.0417C12.7088 34.0417 11.9059 33.7094 11.2384 33.045C10.5708 32.3805 10.2364 31.5808 10.2353 30.6458H17.0588C17.0588 31.5797 16.725 32.3794 16.0575 33.045C15.3899 33.7106 14.5864 34.0428 13.6471 34.0417ZM1.70588 28.9479C1.22255 28.9479 0.817686 28.7849 0.491294 28.4589C0.164902 28.1329 0.00113725 27.73 0 27.25C0 26.769 0.163765 26.366 0.491294 26.0411C0.818824 25.7163 1.22369 25.5533 1.70588 25.5521H3.41176V13.6668C3.41176 11.318 4.12255 9.23126 5.54412 7.40658C6.96569 5.58189 8.81372 4.386 11.0882 3.81889V2.63036C11.0882 1.9229 11.3373 1.32184 11.8354 0.82718C12.3335 0.332523 12.9374 0.084628 13.6471 0.0834961C14.3578 0.0834961 14.9623 0.331391 15.4604 0.82718C15.9585 1.32297 16.207 1.92403 16.2059 2.63036V3.18218C15.9216 3.74815 15.7083 4.34242 15.5662 4.96498C15.424 5.58755 15.3529 6.22427 15.3529 6.87513C15.3529 9.2239 16.1848 11.2263 17.8486 12.8823C19.5125 14.5384 21.5237 15.3658 23.8824 15.3647V25.5521H25.5882C26.0716 25.5521 26.477 25.7151 26.8045 26.0411C27.1321 26.3671 27.2953 26.7701 27.2941 27.25C27.2941 27.7311 27.1304 28.1346 26.8028 28.4606C26.4753 28.7866 26.0704 28.9491 25.5882 28.9479H1.70588ZM23.8824 11.9689C22.4608 11.9689 21.2525 11.4736 20.2574 10.4832C19.2623 9.49274 18.7647 8.29005 18.7647 6.87513C18.7647 5.46021 19.2623 4.25752 20.2574 3.26707C21.2525 2.27663 22.4608 1.7814 23.8824 1.7814C25.3039 1.7814 26.5123 2.27663 27.5074 3.26707C28.5025 4.25752 29 5.46021 29 6.87513C29 8.29005 28.5025 9.49274 27.5074 10.4832C26.5123 11.4736 25.3039 11.9689 23.8824 11.9689Z" fill="white"/>
</svg>
