<svg width="37" height="36" viewBox="0 0 37 36" fill="none" xmlns="http://www.w3.org/2000/svg">
<path d="M14.4738 33.8166V23.3035H22.5172V33.8166C22.5172 34.9731 23.4221 35.9193 24.5281 35.9193H30.5607C31.6666 35.9193 32.5715 34.9731 32.5715 33.8166V19.0982H35.99C36.915 19.0982 37.3573 17.8997 36.6535 17.2689L28.2482 9.35249L19.8428 1.43607C19.0787 0.721179 17.9124 0.721179 17.1483 1.43607L0.337526 17.2689C-0.346164 17.8997 0.0761146 19.0982 1.00111 19.0982H4.41956V33.8166C4.41956 34.9731 5.32444 35.9193 6.43041 35.9193H12.463C13.5689 35.9193 14.4738 34.9731 14.4738 33.8166Z" fill="white"/>
</svg>
