<svg width="19" height="12" viewBox="0 0 19 12" fill="none" xmlns="http://www.w3.org/2000/svg">
<path fill-rule="evenodd" clip-rule="evenodd" d="M9.7592 2.41712C12.3557 2.41722 14.853 3.32092 16.7348 4.94144C16.8765 5.06655 17.103 5.06498 17.2426 4.93791L18.5971 3.69962C18.6678 3.63518 18.7072 3.54787 18.7066 3.45704C18.706 3.36621 18.6655 3.27933 18.594 3.21563C13.6549 -1.07188 5.86276 -1.07188 0.923601 3.21563C0.852054 3.27928 0.811459 3.36613 0.810799 3.45697C0.810139 3.5478 0.849469 3.63513 0.920086 3.69962L2.27505 4.93791C2.41453 5.06517 2.6412 5.06675 2.78282 4.94144C4.66488 3.32082 7.16241 2.41711 9.7592 2.41712ZM9.75923 6.44579C11.1859 6.44571 12.5616 6.92602 13.6191 7.79339C13.7621 7.91649 13.9874 7.91382 14.1268 7.78738L15.4799 6.54909C15.5511 6.48414 15.5907 6.39603 15.5896 6.30447C15.5886 6.21291 15.5471 6.12555 15.4744 6.06192C12.2541 3.34862 7.26709 3.34862 4.0468 6.06192C3.97406 6.12554 3.93256 6.21295 3.9316 6.30454C3.93065 6.39613 3.97032 6.48424 4.04172 6.54909L5.39435 7.78738C5.53378 7.91382 5.75909 7.91649 5.90212 7.79339C6.95892 6.92659 8.33354 6.44632 9.75923 6.44579ZM12.4686 9.15637C12.4707 9.24818 12.4309 9.33671 12.3585 9.40103L10.0185 11.5404C9.94988 11.6033 9.85636 11.6387 9.75877 11.6387C9.66119 11.6387 9.56767 11.6033 9.49907 11.5404L7.15864 9.40103C7.08634 9.33666 7.04656 9.24811 7.04871 9.15629C7.05085 9.06447 7.09472 8.97753 7.16996 8.91598C8.6644 7.77087 10.8531 7.77087 12.3476 8.91598C12.4228 8.97758 12.4666 9.06455 12.4686 9.15637Z" fill="white"/>
</svg>
