<svg width="172" height="932" viewBox="0 0 172 932" fill="none" xmlns="http://www.w3.org/2000/svg">
<path fill-rule="evenodd" clip-rule="evenodd" d="M86.0587 931.643L83.19 905.033C80.3214 877.616 74.5842 824.396 71.7155 770.369C68.8469 716.342 68.8469 663.122 80.3214 609.095C91.7959 555.069 114.745 501.848 106.139 447.821C97.5331 393.795 57.3724 340.574 45.8979 286.548C34.4235 232.521 51.6352 179.301 48.7666 125.274C45.8979 71.2471 22.949 18.0267 11.4745 -9.38983L0 -36H172.117L172.117 -9.38983C172.117 18.0267 172.117 71.2471 172.117 125.274C172.117 179.301 172.117 232.521 172.117 286.548C172.117 340.574 172.117 393.795 172.117 447.821C172.117 501.848 172.117 555.069 172.117 609.095C172.117 663.122 172.117 716.342 172.117 770.369C172.117 824.396 172.117 877.616 172.117 905.033V931.643H86.0587Z" fill="#9CCC7F"/>
</svg>
