<svg width="430" height="172" viewBox="0 0 430 172" fill="none" xmlns="http://www.w3.org/2000/svg">
<path fill-rule="evenodd" clip-rule="evenodd" d="M-225 70.1253L-193.007 63.165C-161.013 56.2046 -97.737 42.2838 -33.75 25.832C30.237 8.74745 93.513 -12.1337 157.5 8.74745C221.487 28.9958 284.763 90.3737 348.75 100.498C412.737 110.622 476.013 70.1253 508.006 49.2442L540 28.9958V172H508.006C476.013 172 412.737 172 348.75 172C284.763 172 221.487 172 157.5 172C93.513 172 30.237 172 -33.75 172C-97.737 172 -161.013 172 -193.007 172H-225V70.1253Z" fill="#016B45"/>
</svg>
