<svg width="17" height="17" viewBox="0 0 17 17" fill="none" xmlns="http://www.w3.org/2000/svg">
<path opacity="0.5" d="M16.6923 6.75644H0V13.9103C0 14.5427 0.263797 15.1493 0.73336 15.5965C1.20292 16.0437 1.83978 16.2949 2.50385 16.2949H14.1885C14.8525 16.2949 15.4894 16.0437 15.9589 15.5965C16.4285 15.1493 16.6923 14.5427 16.6923 13.9103V6.75644ZM4.17308 5.16669C3.95172 5.16669 3.73944 5.08295 3.58292 4.93388C3.42639 4.78481 3.33846 4.58263 3.33846 4.37182V1.19233C3.33846 0.98152 3.42639 0.779341 3.58292 0.630273C3.73944 0.481206 3.95172 0.397461 4.17308 0.397461C4.39443 0.397461 4.60672 0.481206 4.76324 0.630273C4.91976 0.779341 5.00769 0.98152 5.00769 1.19233V4.37182C5.00769 4.58263 4.91976 4.78481 4.76324 4.93388C4.60672 5.08295 4.39443 5.16669 4.17308 5.16669ZM12.5192 5.16669C12.2979 5.16669 12.0856 5.08295 11.9291 4.93388C11.7725 4.78481 11.6846 4.58263 11.6846 4.37182V1.19233C11.6846 0.98152 11.7725 0.779341 11.9291 0.630273C12.0856 0.481206 12.2979 0.397461 12.5192 0.397461C12.7406 0.397461 12.9529 0.481206 13.1094 0.630273C13.2659 0.779341 13.3538 0.98152 13.3538 1.19233V4.37182C13.3538 4.58263 13.2659 4.78481 13.1094 4.93388C12.9529 5.08295 12.7406 5.16669 12.5192 5.16669Z" fill="#86B769"/>
<path d="M14.1885 1.98718H13.3538V4.3718C13.3538 4.58261 13.2659 4.78479 13.1094 4.93386C12.9529 5.08292 12.7406 5.16667 12.5192 5.16667C12.2979 5.16667 12.0856 5.08292 11.9291 4.93386C11.7725 4.78479 11.6846 4.58261 11.6846 4.3718V1.98718H5.00769V4.3718C5.00769 4.58261 4.91976 4.78479 4.76324 4.93386C4.60672 5.08292 4.39443 5.16667 4.17308 5.16667C3.95172 5.16667 3.73944 5.08292 3.58292 4.93386C3.42639 4.78479 3.33846 4.58261 3.33846 4.3718V1.98718H2.50385C1.83978 1.98718 1.20292 2.23842 0.73336 2.68562C0.263797 3.13282 0 3.73936 0 4.3718V6.75641H16.6923V4.3718C16.6923 3.73936 16.4285 3.13282 15.9589 2.68562C15.4894 2.23842 14.8525 1.98718 14.1885 1.98718Z" fill="#86B769"/>
</svg>
