<svg width="69" height="69" viewBox="0 0 69 69" fill="none" xmlns="http://www.w3.org/2000/svg">
<path d="M23.3308 40.848C23.0059 41.0579 22.6753 41.2706 22.3418 41.4747C22.6532 44.5957 24.1528 47.4775 26.5303 49.5233C28.9077 51.5691 31.9808 52.6224 35.1133 52.465C38.2458 52.3076 41.1979 50.9516 43.3583 48.6778C45.5187 46.404 46.7219 43.3865 46.7189 40.25V40.2356C46.3365 40.3018 45.9427 40.365 45.5574 40.4225L45.5143 40.4311C45.0485 40.503 44.5885 40.5749 44.117 40.6583C42.1045 41.0205 40.4744 40.8739 39.0628 40.3535C37.7489 39.8705 36.7599 39.1 36.0297 38.5336L35.9607 38.4819C35.17 37.8666 34.6525 37.4843 34.0114 37.2456C33.4278 37.0329 32.594 36.892 31.214 37.1421C29.19 37.5044 27.3817 38.3669 25.7084 39.353C24.9954 39.7756 24.3284 40.204 23.6758 40.6266L23.3308 40.848Z" fill="#07744E"/>
<path fill-rule="evenodd" clip-rule="evenodd" d="M8.625 28.75C8.625 17.9084 8.625 12.4861 11.9945 9.1195C15.3611 5.75 20.7834 5.75 31.625 5.75H37.375C48.2166 5.75 53.6389 5.75 57.0055 9.1195C60.375 12.4861 60.375 17.9084 60.375 28.75V40.25C60.375 51.0916 60.375 56.5139 57.0055 59.8805C53.6389 63.25 48.2166 63.25 37.375 63.25H31.625C20.7834 63.25 15.3611 63.25 11.9945 59.8805C8.625 56.5139 8.625 51.0916 8.625 40.25V28.75ZM51.0312 40.25C51.0312 39.6175 50.9968 38.9965 50.9278 38.3841L50.9852 38.3467L50.7236 37.0587C49.9219 33.0368 47.6543 29.4562 44.3611 27.0121C41.0678 24.568 36.9839 23.4348 32.9021 23.8325C28.8204 24.2302 25.032 26.1304 22.2724 29.1642C19.5129 32.198 17.9791 36.1489 17.9688 40.25C17.9688 44.6344 19.7104 48.8391 22.8106 51.9394C25.9109 55.0396 30.1156 56.7812 34.5 56.7812C38.8844 56.7812 43.0891 55.0396 46.1894 51.9394C49.2896 48.8391 51.0312 44.6344 51.0312 40.25ZM23 15.0937C22.4281 15.0937 21.8797 15.3209 21.4753 15.7253C21.0709 16.1297 20.8438 16.6781 20.8438 17.25C20.8438 17.8219 21.0709 18.3703 21.4753 18.7747C21.8797 19.1791 22.4281 19.4062 23 19.4062H46C46.5719 19.4062 47.1203 19.1791 47.5247 18.7747C47.9291 18.3703 48.1562 17.8219 48.1562 17.25C48.1562 16.6781 47.9291 16.1297 47.5247 15.7253C47.1203 15.3209 46.5719 15.0937 46 15.0937H23Z" fill="#07744E"/>
</svg>
