<svg width="18" height="17" viewBox="0 0 18 17" fill="none" xmlns="http://www.w3.org/2000/svg">
<path d="M6.42087 10.0096C6.34165 10.0608 6.26102 10.1127 6.17969 10.1625C6.25563 10.9236 6.62134 11.6263 7.20112 12.1253C7.7809 12.6242 8.53033 12.881 9.29425 12.8426C10.0582 12.8043 10.7781 12.4736 11.3049 11.9191C11.8318 11.3646 12.1252 10.6287 12.1245 9.86379V9.86029C12.0313 9.87641 11.9352 9.89184 11.8412 9.90586L11.8307 9.90796C11.7171 9.92549 11.605 9.94302 11.49 9.96335C10.9992 10.0517 10.6017 10.0159 10.2574 9.88903C9.937 9.77125 9.69581 9.58335 9.51773 9.44522L9.5009 9.4326C9.30809 9.28256 9.18189 9.18931 9.02554 9.13112C8.88321 9.07924 8.67989 9.04488 8.34335 9.10588C7.84976 9.19422 7.40875 9.40456 7.0007 9.64504C6.82682 9.74811 6.66416 9.85258 6.50501 9.95564L6.42087 10.0096Z" fill="#016B45"/>
<path fill-rule="evenodd" clip-rule="evenodd" d="M2.83496 7.05929C2.83496 4.41536 2.83496 3.09305 3.65668 2.27203C4.47769 1.45032 5.80001 1.45032 8.44394 1.45032H9.84618C12.4901 1.45032 13.8124 1.45032 14.6334 2.27203C15.4552 3.09305 15.4552 4.41536 15.4552 7.05929V9.86378C15.4552 12.5077 15.4552 13.83 14.6334 14.651C13.8124 15.4728 12.4901 15.4728 9.84618 15.4728H8.44394C5.80001 15.4728 4.47769 15.4728 3.65668 14.651C2.83496 13.83 2.83496 12.5077 2.83496 9.86378V7.05929ZM13.1765 9.86378C13.1765 9.70953 13.1681 9.55809 13.1513 9.40875L13.1653 9.39964L13.1015 9.08553C12.906 8.1047 12.353 7.23151 11.5499 6.63548C10.7467 6.03944 9.7508 5.76309 8.75538 5.86007C7.75997 5.95705 6.8361 6.42045 6.16314 7.1603C5.49017 7.90014 5.11612 8.86365 5.11361 9.86378C5.11361 10.933 5.53835 11.9584 6.29439 12.7144C7.05044 13.4705 8.07585 13.8952 9.14506 13.8952C10.2143 13.8952 11.2397 13.4705 11.9957 12.7144C12.7518 11.9584 13.1765 10.933 13.1765 9.86378ZM6.34057 3.72896C6.20111 3.72896 6.06736 3.78436 5.96874 3.88298C5.87013 3.98159 5.81473 4.11534 5.81473 4.2548C5.81473 4.39427 5.87013 4.52802 5.96874 4.62663C6.06736 4.72524 6.20111 4.78065 6.34057 4.78065H11.9495C12.089 4.78065 12.2228 4.72524 12.3214 4.62663C12.42 4.52802 12.4754 4.39427 12.4754 4.2548C12.4754 4.11534 12.42 3.98159 12.3214 3.88298C12.2228 3.78436 12.089 3.72896 11.9495 3.72896H6.34057Z" fill="#016B45"/>
</svg>
