<svg width="430" height="230" viewBox="0 0 430 230" fill="none" xmlns="http://www.w3.org/2000/svg">
<path fill-rule="evenodd" clip-rule="evenodd" d="M-583 49.6078L-536.958 73.6601C-490.917 97.7124 -398.833 145.817 -306.75 169.869C-214.667 193.922 -122.583 193.922 -30.5 157.843C61.5834 121.765 153.667 49.6078 245.75 19.5425C337.833 -10.5229 429.917 1.50327 475.958 7.51634L522 13.5294V230H475.958C429.917 230 337.833 230 245.75 230C153.667 230 61.5834 230 -30.5 230C-122.583 230 -214.667 230 -306.75 230C-398.833 230 -490.917 230 -536.958 230H-583V49.6078Z" fill="#84B567"/>
</svg>
