<svg width="17" height="17" viewBox="0 0 17 17" fill="none" xmlns="http://www.w3.org/2000/svg">
<path d="M8.4848 5.18421C9.89574 5.18421 11.0395 4.02369 11.0395 2.59211C11.0395 1.16052 9.89574 0 8.4848 0C7.07385 0 5.93005 1.16052 5.93005 2.59211C5.93005 4.02369 7.07385 5.18421 8.4848 5.18421Z" fill="#1A7F5D"/>
<path d="M3.80111 5.1842C3.43259 5.18808 3.07526 5.31314 2.78275 5.5406C2.49024 5.76806 2.27833 6.08565 2.17885 6.4457L0.0541553 14.2566C-0.0102223 14.5094 -0.0173022 14.7737 0.0334474 15.0297C0.084197 15.2856 0.191457 15.5266 0.347169 15.7345C0.502881 15.9424 0.702997 16.1118 0.932484 16.2299C1.16197 16.3481 1.41486 16.4119 1.67216 16.4167H15.2975C15.5603 16.4166 15.8196 16.3547 16.055 16.236C16.2903 16.1173 16.4955 15.9449 16.6542 15.7324C16.813 15.5198 16.9211 15.2728 16.9701 15.0108C17.0191 14.7488 17.0077 14.4788 16.9367 14.222L14.7865 6.48026C14.6927 6.11167 14.4816 5.78481 14.186 5.55045C13.8903 5.31609 13.5266 5.18735 13.1515 5.1842H3.80111Z" fill="#1A7F5D"/>
</svg>
