<svg width="79" height="37" viewBox="0 0 79 37" fill="none" xmlns="http://www.w3.org/2000/svg">
<g clip-path="url(#clip0_224_205)">
<rect x="2" y="-18.8333" width="75" height="75" rx="5.55556" fill="white"/>
<path d="M27.9689 20.5012C28.5223 20.423 29.0768 20.3481 29.6313 20.2764L30.2682 17.1872C29.703 17.336 29.1389 17.488 28.5758 17.6453L27.9689 20.5012ZM11.7222 23.9254C13.4605 23.4084 15.2171 22.9374 17.0025 22.5178L17.2348 21.425C17.1064 21.4763 16.9768 21.5266 16.8484 21.578C15.1186 22.2706 13.3674 23.006 11.7222 23.9254ZM42.6058 15.4049L42.8038 14.4448C42.5886 14.4812 42.3735 14.5197 42.1583 14.5572L42.6058 15.4049ZM65.9932 12.7096C62.9843 12.7096 59.9861 12.7739 56.9975 12.9269C54.892 13.035 52.7907 13.187 50.6938 13.3936C50.1928 13.4429 49.6919 13.4953 49.192 13.551L48.1013 18.6825C48.6065 18.6558 49.1128 18.6312 49.618 18.6087C51.6861 18.5156 53.7552 18.4567 55.8243 18.446C56.2803 18.4438 56.7352 18.4428 57.1912 18.446C58.6609 18.4545 62.8355 18.446 66.1045 18.4396H66.1452L67.2767 12.7107H65.9932V12.7096ZM35.9414 19.5742C36.772 19.495 37.6037 19.4201 38.4354 19.3505L36.6853 16.0761L35.9424 19.5742H35.9414Z" fill="#EC2C25"/>
<path d="M16.4277 27.8635H17.6822L17.7668 27.2598H16.5155L16.6364 26.4334H17.9295L18.0141 25.8308H16.2233L15.7148 29.4488H17.6041L17.6887 28.8451H16.2843L16.4277 27.8635Z" fill="#313B97"/>
<path d="M20.8111 25.8308H20.1795L19.7995 26.4602C19.7085 26.6132 19.5961 26.8091 19.4623 27.0489C19.4548 27.0211 19.4473 26.9997 19.4409 26.9836C19.3403 26.6807 19.2857 26.518 19.2772 26.4934L19.0384 25.8297H18.5118L19.1198 27.6301L18.0494 29.4488H18.6981L19.0267 28.9061C19.2022 28.6128 19.3114 28.419 19.3531 28.3259C19.3842 28.4469 19.4495 28.6449 19.5458 28.9232L19.7321 29.4488H20.2951L19.6989 27.7329L20.81 25.8297L20.8111 25.8308Z" fill="#313B97"/>
<path d="M22.5687 25.9228C22.467 25.8607 22.3289 25.8297 22.1544 25.8297H21.1729L20.6644 29.4477H21.1632L21.3559 28.0765H21.6738C21.8879 28.0765 22.0345 28.0679 22.1127 28.0519C22.2465 28.0241 22.3535 27.9834 22.4327 27.9299C22.5119 27.8763 22.5858 27.7971 22.6543 27.6933C22.7228 27.5895 22.7806 27.4503 22.8277 27.2769C22.8748 27.1035 22.8984 26.9247 22.8984 26.7417C22.8984 26.5437 22.8684 26.3735 22.8095 26.23C22.7506 26.0877 22.6704 25.9849 22.5687 25.9228ZM22.3225 27.1634C22.2722 27.2716 22.2037 27.3508 22.1159 27.4C22.0281 27.4492 21.8547 27.4739 21.5935 27.4739H21.4415L21.5882 26.4334H21.9414C22.102 26.4334 22.2047 26.4463 22.2518 26.472C22.2979 26.4976 22.3343 26.5383 22.3599 26.594C22.3856 26.6496 22.3985 26.7214 22.3985 26.8081C22.3985 26.9376 22.3739 27.0564 22.3235 27.1645L22.3225 27.1634Z" fill="#313B97"/>
<path d="M24.9482 25.9153C24.8443 25.8586 24.6998 25.8297 24.5136 25.8297H23.4314L22.9229 29.4477H23.4218L23.6326 27.9502H23.8381C23.957 27.9502 24.0405 27.9737 24.0886 28.0219C24.1668 28.1022 24.2396 28.2595 24.3091 28.4929C24.4365 28.9253 24.5211 29.2443 24.565 29.4477H25.0991C24.9621 28.9307 24.8379 28.5314 24.7266 28.2478C24.6699 28.1075 24.6099 27.9952 24.5468 27.9095C24.7972 27.8614 24.9846 27.7383 25.1087 27.5381C25.2329 27.3379 25.295 27.0842 25.295 26.777C25.295 26.5619 25.2629 26.3778 25.1997 26.2268C25.1366 26.0759 25.052 25.9721 24.9492 25.9143L24.9482 25.9153ZM24.7309 27.1099C24.6806 27.2116 24.611 27.2865 24.5211 27.3347C24.4322 27.3829 24.2513 27.4064 23.9784 27.4064H23.7097L23.8467 26.4334H24.4055C24.5543 26.4334 24.6517 26.4527 24.6966 26.4923C24.7694 26.5587 24.8058 26.6571 24.8058 26.7888C24.8058 26.9012 24.7801 27.0082 24.7298 27.1099L24.7309 27.1099Z" fill="#313B97"/>
<path d="M25.4781 29.4488H27.3663L27.4519 28.8451H26.0475L26.191 27.8635H27.4455L27.53 27.2598H26.2787L26.3997 26.4334H27.6927L27.7773 25.8308H25.9865L25.4781 29.4488Z" fill="#313B97"/>
<path d="M28.9612 26.3553C29.1035 26.3553 29.2106 26.4013 29.2834 26.4934C29.3412 26.5672 29.3797 26.6678 29.399 26.7931H29.8817C29.8582 26.4923 29.7747 26.2482 29.6281 26.062C29.4707 25.8618 29.2491 25.7623 28.9633 25.7623C28.6775 25.7623 28.4667 25.8629 28.3179 26.0641C28.1691 26.2654 28.0952 26.5191 28.0952 26.8252C28.0952 27.0007 28.1198 27.1527 28.1702 27.2833C28.2205 27.4139 28.289 27.5199 28.3767 27.6012C28.4645 27.6826 28.6037 27.7854 28.7942 27.9074C28.9847 28.0294 29.1014 28.1183 29.1432 28.1728C29.1796 28.2178 29.2042 28.2703 29.2181 28.327C29.2277 28.3644 29.2341 28.403 29.2341 28.4458C29.2341 28.57 29.1967 28.6759 29.1239 28.7626C29.05 28.8504 28.9301 28.8943 28.7653 28.8943C28.5662 28.8943 28.4303 28.8301 28.3564 28.7006C28.3168 28.6321 28.2911 28.5068 28.2815 28.327H27.803C27.803 28.5496 27.8308 28.7487 27.8897 28.9232C27.9529 29.1095 28.061 29.255 28.214 29.3599C28.3671 29.4648 28.5491 29.5173 28.7578 29.5173C29.0607 29.5173 29.2973 29.4038 29.4675 29.1769C29.6377 28.95 29.7222 28.677 29.7222 28.3559C29.7222 28.3463 29.7212 28.3377 29.7201 28.3281C29.7158 28.0829 29.6602 27.8796 29.5499 27.7201C29.4728 27.6077 29.2941 27.4621 29.0126 27.2823C28.8252 27.1624 28.7054 27.0671 28.6508 26.9975C28.5962 26.9301 28.5694 26.8434 28.5694 26.7396C28.5694 26.6293 28.5994 26.5373 28.6593 26.4645C28.7193 26.3917 28.8199 26.3553 28.959 26.3553H28.9612ZM31.8117 27.719C31.7346 27.6066 31.5559 27.461 31.2744 27.2812C31.087 27.1613 30.9671 27.066 30.9125 26.9965C30.8676 26.9408 30.843 26.8723 30.8344 26.7931C30.8323 26.776 30.8312 26.7578 30.8312 26.7396C30.8312 26.6293 30.8612 26.5373 30.9211 26.4645C30.9811 26.3917 31.0806 26.3553 31.2208 26.3553C31.3611 26.3553 31.4702 26.4013 31.543 26.4934C31.6008 26.5672 31.6394 26.6678 31.6586 26.7931H32.1414C32.1178 26.4923 32.0343 26.2482 31.8877 26.062C31.7303 25.8618 31.5098 25.7623 31.223 25.7623C30.9361 25.7623 30.7263 25.8629 30.5775 26.0641C30.4341 26.2589 30.3602 26.5019 30.3559 26.7931C30.3559 26.8038 30.3559 26.8145 30.3559 26.8252C30.3559 27.0007 30.3806 27.1527 30.4309 27.2833C30.4812 27.4139 30.5497 27.5199 30.6375 27.6012C30.7252 27.6826 30.8644 27.7854 31.0549 27.9074C31.2455 28.0294 31.3621 28.1183 31.4039 28.1728C31.4403 28.2178 31.4649 28.2703 31.4788 28.327C31.4884 28.3644 31.4938 28.403 31.4938 28.4458C31.4938 28.57 31.4563 28.6759 31.3835 28.7626C31.3097 28.8504 31.1898 28.8943 31.0249 28.8943C30.8258 28.8943 30.6899 28.8301 30.616 28.7006C30.5764 28.6321 30.5508 28.5068 30.5411 28.327H30.0626C30.0626 28.5496 30.0905 28.7487 30.1493 28.9232C30.2125 29.1095 30.3206 29.255 30.4737 29.3599C30.6267 29.4648 30.8087 29.5173 31.0175 29.5173C31.3204 29.5173 31.5569 29.4038 31.7271 29.1769C31.8973 28.95 31.9819 28.677 31.9819 28.3559C31.9819 28.3463 31.9808 28.3377 31.9798 28.3281C31.9755 28.0829 31.9198 27.8796 31.8096 27.7201L31.8117 27.719Z" fill="#313B97"/>
<path d="M50.4872 25.8308L50.1447 28.2521L49.481 25.8308H49.0154L48.5069 29.4488H48.9726L49.3172 27.0168L49.9788 29.4488H50.4444L50.9528 25.8308H50.4872Z" fill="#313B97"/>
<path d="M52.2394 25.8308L50.8715 29.4488H51.3906L51.6839 28.6513H52.6473L52.7265 29.4488H53.1996L52.8078 25.8308H52.2394ZM51.9055 28.0487L52.4418 26.5897L52.5863 28.0487H51.9044H51.9055Z" fill="#313B97"/>
<path d="M55.5031 25.8308H53.5946L53.5165 26.4334H54.2283L53.8044 29.4488H54.3032L54.7271 26.4334H55.425L55.5031 25.8308Z" fill="#313B97"/>
<path d="M55.5139 29.4488H56.0127L56.5211 25.8308H56.0223L55.5139 29.4488Z" fill="#313B97"/>
<path d="M58.0936 25.7623C57.8699 25.7623 57.6708 25.8308 57.4952 25.9667C57.3197 26.1027 57.1752 26.2878 57.0596 26.5223C56.9439 26.7567 56.8594 27.0329 56.8027 27.3518C56.7598 27.5895 56.7384 27.8153 56.7384 28.0294C56.7384 28.2606 56.7705 28.4897 56.8348 28.7166C56.899 28.9435 57.0071 29.1341 57.1602 29.2871C57.3132 29.4402 57.5027 29.5173 57.7286 29.5173C57.9887 29.5173 58.222 29.4209 58.4275 29.2283C58.6341 29.0356 58.7968 28.7594 58.9167 28.4019C59.0366 28.0444 59.0965 27.673 59.0965 27.2908C59.0965 26.8305 59.0045 26.4613 58.8193 26.1819C58.6352 25.9036 58.3933 25.7633 58.0936 25.7633V25.7623ZM58.4853 28.0904C58.404 28.3602 58.3002 28.5625 58.1749 28.6952C58.0497 28.8279 57.9191 28.8943 57.7832 28.8943C57.6162 28.8943 57.4824 28.8097 57.3796 28.6417C57.2769 28.4736 57.2265 28.2638 57.2265 28.0144C57.2265 27.6087 57.3036 27.2352 57.4577 26.8948C57.6119 26.5544 57.8121 26.3842 58.0572 26.3842C58.2177 26.3842 58.3494 26.4655 58.4522 26.6282C58.556 26.7909 58.6074 27.0147 58.6074 27.3005C58.6074 27.5563 58.5667 27.8196 58.4853 28.0894V28.0904Z" fill="#313B97"/>
<path d="M60.8606 28.2521L60.1969 25.8308H59.7324L59.2239 29.4488H59.6896L60.0332 27.0168L60.6958 29.4488H61.1614L61.6698 25.8308H61.2042L60.8606 28.2521Z" fill="#313B97"/>
<path d="M63.4853 27.7201C63.4082 27.6077 63.2294 27.4621 62.9479 27.2823C62.7606 27.1624 62.6407 27.0671 62.5861 26.9975C62.5411 26.9419 62.5165 26.8734 62.508 26.7941C62.5058 26.777 62.5048 26.7588 62.5048 26.7406C62.5048 26.6304 62.5347 26.5383 62.5947 26.4655C62.6546 26.3927 62.7542 26.3563 62.8944 26.3563C63.0346 26.3563 63.1438 26.4024 63.2176 26.4944C63.2754 26.5683 63.314 26.6689 63.3333 26.7941H63.816C63.7925 26.4934 63.709 26.2493 63.5623 26.0631C63.405 25.8629 63.1834 25.7633 62.8976 25.7633C62.6118 25.7633 62.4009 25.864 62.2521 26.0652C62.1087 26.26 62.0348 26.503 62.0306 26.7941C62.0306 26.8049 62.0306 26.8156 62.0306 26.8263C62.0306 27.0018 62.0562 27.1538 62.1066 27.2844C62.1569 27.415 62.2254 27.521 62.3131 27.6023C62.4009 27.6837 62.5401 27.7864 62.7306 27.9085C62.9211 28.0305 63.0378 28.1193 63.0806 28.1739C63.117 28.2189 63.1416 28.2713 63.1556 28.3281C63.1652 28.3655 63.1706 28.4041 63.1706 28.4469C63.1706 28.571 63.1342 28.677 63.0603 28.7637C62.9864 28.8515 62.8666 28.8954 62.7017 28.8954C62.5026 28.8954 62.3667 28.8312 62.2928 28.7016C62.2532 28.6331 62.2275 28.5079 62.2179 28.3281H61.7394C61.7394 28.5507 61.7672 28.7498 61.8261 28.9243C61.8893 29.1105 61.9974 29.2561 62.1504 29.361C62.3035 29.4659 62.4844 29.5184 62.6942 29.5184C62.9971 29.5184 63.2337 29.4049 63.4039 29.178C63.5741 28.951 63.6587 28.6781 63.6587 28.357C63.6587 28.3473 63.6576 28.3388 63.6565 28.3291C63.6522 28.084 63.5966 27.8806 63.4863 27.7211L63.4853 27.7201Z" fill="#313B97"/>
<path d="M34.251 25.8308L32.883 29.4488H33.4021L33.6954 28.6513H34.6577L34.7369 29.4488H35.2101L34.8183 25.8308H34.2499H34.251ZM33.917 28.0487L34.4533 26.5897L34.5978 28.0487H33.9159H33.917Z" fill="#313B97"/>
<path d="M37.0287 28.707C36.9206 28.8312 36.8017 28.8932 36.6722 28.8932C36.5331 28.8932 36.4164 28.814 36.3222 28.6556C36.2291 28.4972 36.182 28.2724 36.182 27.9813C36.182 27.7147 36.2184 27.4482 36.2901 27.1817C36.3618 26.9151 36.4581 26.7182 36.5791 26.5929C36.7 26.4677 36.8296 26.4045 36.9676 26.4045C37.094 26.4045 37.1956 26.4516 37.2716 26.5469C37.3337 26.625 37.3787 26.7439 37.4076 26.9001H37.8968C37.8647 26.5555 37.7705 26.2804 37.6142 26.0781C37.4515 25.8672 37.2395 25.7623 36.9762 25.7623C36.7418 25.7623 36.5256 25.8533 36.3265 26.0342C36.1274 26.2161 35.9722 26.4773 35.8598 26.8198C35.7474 27.1624 35.6917 27.5392 35.6917 27.9523C35.6917 28.4608 35.7752 28.8483 35.9422 29.1159C36.1092 29.3835 36.3415 29.5173 36.638 29.5173C36.9013 29.5173 37.1314 29.4103 37.3273 29.1962C37.5232 28.9821 37.6709 28.6727 37.7694 28.2681L37.7169 28.2563H37.2417C37.1892 28.449 37.1186 28.6021 37.0265 28.7081L37.0287 28.707Z" fill="#313B97"/>
<path d="M39.9895 25.9154C39.8856 25.8586 39.7411 25.8297 39.5549 25.8297H38.4727L37.9642 29.4477H38.4631L38.6729 27.9502H38.8784C38.9972 27.9502 39.0807 27.9738 39.1288 28.0219C39.207 28.1022 39.2798 28.2596 39.3494 28.4929C39.4757 28.9254 39.5613 29.2443 39.6052 29.4477H40.1393C40.0023 28.9307 39.8781 28.5314 39.7668 28.2478C39.7112 28.1076 39.6512 27.9952 39.587 27.9095C39.8375 27.8614 40.0237 27.7383 40.1479 27.5381C40.272 27.3379 40.3341 27.0842 40.3341 26.777C40.3341 26.5619 40.3031 26.3778 40.2389 26.2268C40.1746 26.0759 40.0911 25.9721 39.9873 25.9143L39.9895 25.9154ZM39.7722 27.1099C39.7219 27.2116 39.6523 27.2866 39.5634 27.3347C39.4746 27.3829 39.2937 27.4064 39.0207 27.4064H38.7521L38.8891 26.4334H39.4478C39.5977 26.4334 39.694 26.4527 39.739 26.4923C39.8118 26.5587 39.8482 26.6572 39.8482 26.7888C39.8482 26.9012 39.8225 27.0082 39.7722 27.1099Z" fill="#313B97"/>
<path d="M41.9162 25.7623C41.6925 25.7623 41.4934 25.8308 41.3178 25.9667C41.1423 26.1027 40.9978 26.2879 40.8822 26.5223C40.7666 26.7567 40.6809 27.0329 40.6253 27.3518C40.5825 27.5895 40.5611 27.8153 40.5611 28.0294C40.5611 28.2606 40.5932 28.4897 40.6563 28.7166C40.7206 28.9436 40.8287 29.1341 40.9817 29.2872C41.1348 29.4402 41.3243 29.5173 41.5501 29.5173C41.8102 29.5173 42.0425 29.421 42.2491 29.2283C42.4546 29.0356 42.6184 28.7594 42.7383 28.4019C42.8582 28.0444 42.9181 27.673 42.9181 27.2908C42.9181 26.8306 42.8261 26.4613 42.6409 26.1819C42.4568 25.9036 42.2149 25.7634 41.9151 25.7634L41.9162 25.7623ZM42.308 28.0904C42.2266 28.3602 42.1228 28.5625 41.9976 28.6952C41.8723 28.8279 41.7417 28.8943 41.6069 28.8943C41.4399 28.8943 41.3061 28.8098 41.2033 28.6417C41.1016 28.4736 41.0502 28.2638 41.0502 28.0144C41.0502 27.6087 41.1273 27.2352 41.2814 26.8948C41.4356 26.5544 41.6347 26.3842 41.8809 26.3842C42.0414 26.3842 42.1731 26.4655 42.2759 26.6282C42.3797 26.791 42.4311 27.0147 42.4311 27.3005C42.4311 27.5563 42.3904 27.8196 42.308 28.0894V28.0904Z" fill="#313B97"/>
<path d="M44.27 26.3553C44.4124 26.3553 44.5195 26.4013 44.5922 26.4934C44.65 26.5672 44.6886 26.6679 44.7078 26.7931H45.1906C45.1671 26.4923 45.0836 26.2483 44.9369 26.062C44.7796 25.8618 44.5591 25.7623 44.2722 25.7623C43.9853 25.7623 43.7755 25.8629 43.6267 26.0641C43.4833 26.259 43.4094 26.5019 43.4051 26.7931C43.4051 26.8038 43.4051 26.8145 43.4051 26.8252C43.4051 27.0008 43.4298 27.1528 43.4801 27.2833C43.5304 27.4139 43.5989 27.5199 43.6867 27.6013C43.7744 27.6826 43.9136 27.7854 44.1041 27.9074C44.2947 28.0294 44.4113 28.1183 44.4531 28.1729C44.4895 28.2178 44.5141 28.2703 44.528 28.327C44.5376 28.3645 44.543 28.403 44.543 28.4458C44.543 28.57 44.5055 28.676 44.4328 28.7627C44.3589 28.8504 44.239 28.8943 44.0742 28.8943C43.8751 28.8943 43.7391 28.8301 43.6653 28.7006C43.6257 28.6321 43.601 28.5068 43.5903 28.327H43.1119C43.1119 28.5496 43.1397 28.7487 43.1986 28.9232C43.2617 29.1095 43.3698 29.255 43.5229 29.3599C43.676 29.4648 43.8579 29.5173 44.0667 29.5173C44.3696 29.5173 44.6062 29.4038 44.7764 29.1769C44.9465 28.95 45.0311 28.677 45.0311 28.3559C45.0311 28.3463 45.03 28.3377 45.029 28.3281C45.0247 28.0829 44.969 27.8796 44.8588 27.7201C44.7817 27.6077 44.6029 27.4621 44.3214 27.2823C44.1352 27.1624 44.0142 27.0671 43.9596 26.9975C43.9147 26.9419 43.889 26.8734 43.8815 26.7942C43.8793 26.777 43.8783 26.7588 43.8783 26.7406C43.8783 26.6304 43.9082 26.5383 43.9682 26.4655C44.0281 26.3928 44.1287 26.3564 44.2679 26.3564L44.27 26.3553ZM47.1206 27.719C47.0435 27.6066 46.8647 27.461 46.5832 27.2812C46.3959 27.1613 46.276 27.066 46.2214 26.9965C46.1765 26.9408 46.1518 26.8723 46.1433 26.7931C46.1411 26.776 46.1401 26.7578 46.1401 26.7396C46.1401 26.6293 46.17 26.5373 46.23 26.4645C46.2899 26.3917 46.3895 26.3553 46.5297 26.3553C46.6699 26.3553 46.7791 26.4013 46.8519 26.4934C46.9097 26.5672 46.9482 26.6679 46.9675 26.7931H47.4502C47.4267 26.4923 47.3432 26.2483 47.1966 26.062C47.0392 25.8618 46.8187 25.7623 46.5318 25.7623C46.245 25.7623 46.0352 25.8629 45.8864 26.0641C45.7429 26.259 45.6691 26.5019 45.6648 26.7931C45.6648 26.8038 45.6648 26.8145 45.6648 26.8252C45.6648 27.0008 45.6905 27.1528 45.7408 27.2833C45.7911 27.4139 45.8596 27.5199 45.9474 27.6013C46.0352 27.6826 46.1743 27.7854 46.3648 27.9074C46.5554 28.0294 46.6721 28.1183 46.7149 28.1729C46.7513 28.2178 46.7759 28.2703 46.7898 28.327C46.7994 28.3645 46.8048 28.403 46.8048 28.4458C46.8048 28.57 46.7684 28.676 46.6945 28.7627C46.6207 28.8504 46.5008 28.8943 46.3359 28.8943C46.1368 28.8943 46.0009 28.8301 45.927 28.7006C45.8874 28.6321 45.8618 28.5068 45.8521 28.327H45.3736C45.3736 28.5496 45.4015 28.7487 45.4603 28.9232C45.5235 29.1095 45.6316 29.255 45.7847 29.3599C45.9377 29.4648 46.1186 29.5173 46.3284 29.5173C46.6314 29.5173 46.869 29.4038 47.0381 29.1769C47.2083 28.95 47.2929 28.677 47.2929 28.3559C47.2929 28.3463 47.2918 28.3377 47.2908 28.3281C47.2865 28.0829 47.2308 27.8796 47.1206 27.7201V27.719Z" fill="#313B97"/>
<path d="M55.8243 18.446C53.7552 18.4567 51.6861 18.5156 49.618 18.6087L48.5219 23.9254H61.2085L62.068 19.7583H55.546L55.8254 18.446H55.8243ZM24.4398 7.68725C24.4515 7.63159 24.4601 7.58663 24.4665 7.55559C24.4601 7.5877 24.4505 7.63159 24.4398 7.68725ZM24.4794 7.55559C24.4794 7.55559 24.4772 7.56308 24.4751 7.57807C24.4729 7.5877 24.4708 7.59947 24.4676 7.61339C24.4612 7.64443 24.4515 7.68939 24.4408 7.74505C24.4216 7.84032 24.3948 7.96984 24.3616 8.12719C24.0448 9.6643 23.166 13.9256 22.725 16.0611C22.7014 16.1746 22.6789 16.2816 22.6586 16.3822C22.6597 16.3758 22.6607 16.3705 22.6629 16.364C22.6607 16.3737 22.6586 16.3833 22.6564 16.3929C22.6564 16.3961 22.6554 16.3983 22.6543 16.4015C22.6233 16.5524 22.5954 16.6894 22.5708 16.8061C22.5665 16.8286 22.5612 16.85 22.5569 16.8714C22.5526 16.8939 22.5473 16.9164 22.543 16.9378C22.5344 16.9784 22.5269 17.017 22.5194 17.0512C22.5184 17.0577 22.5173 17.0641 22.5152 17.0705C22.5044 17.1197 22.4959 17.1626 22.4884 17.1979C22.4755 17.26 22.4681 17.2985 22.4648 17.3103C22.2807 18.2041 22.0196 18.811 21.0701 19.0401H17.739L16.7285 23.7948L16.7114 23.8773H16.7264L16.7146 23.9372H20.5895V23.9244H23.1553C23.1938 23.919 23.2323 23.9137 23.2698 23.9083C25.8677 23.4983 27.3513 22.1721 27.9058 20.7913L30.7199 7.55559H24.4794ZM58.1385 7.55666L51.898 7.55559L50.6938 13.3936C52.7907 13.187 54.892 13.035 56.9975 12.9269L57.2479 11.7505H63.7197L64.5846 7.55559H58.1385V7.55666ZM50.4658 7.55666H44.2253L42.6068 15.406L38.4654 7.55559H32.2549L30.2682 17.1872L29.6313 20.2764L28.8788 23.9254H35.0176L35.9424 19.5742L36.6853 16.0761L38.4354 19.3505L40.8578 23.8816L40.8813 23.9254H46.987L48.1013 18.6825L49.192 13.551L50.4658 7.55559V7.55666Z" fill="#313B97"/>
</g>
<rect x="1.30556" y="1.30556" width="76.3889" height="34.0278" rx="6.25" stroke="black" stroke-opacity="0.1" stroke-width="1.38889"/>
<defs>
<clipPath id="clip0_224_205">
<rect x="2" y="2" width="75" height="32.6389" rx="5.55556" fill="white"/>
</clipPath>
</defs>
</svg>
