<svg width="430" height="345" viewBox="0 0 430 345" fill="none" xmlns="http://www.w3.org/2000/svg">
<path d="M480.019 146.115C556.939 168.581 557.327 212.712 547.906 231.97L255.713 396.599L-90.1173 196.765C-88.1866 187.74 -77.802 177.921 -55.1853 165.178C8.87349 129.086 48.4105 144.69 70.8547 157.66C98.5378 173.656 120.873 194.898 137.862 203.605C190.736 227.497 263.621 187.033 300.357 167.61C366.874 132.442 434.896 132.936 480.019 146.115Z" fill="#1A7F5D"/>
<rect x="324" y="286" width="106" height="59" fill="#016B45"/>
<rect y="283" width="104" height="62" fill="#016B45"/>
<path d="M324.351 233.382C397.33 193.173 459.169 249.116 457.686 280.643L207.509 421.598L-81.0001 254.887C18.6043 229.382 74.7031 252.409 118.312 282.783C161.829 313.091 216.281 304.501 246.487 290.893C272.112 279.348 302.477 245.706 324.351 233.382Z" fill="#016B45"/>
</svg>
