<svg width="291" height="932" viewBox="0 0 291 932" fill="none" xmlns="http://www.w3.org/2000/svg">
<path fill-rule="evenodd" clip-rule="evenodd" d="M145.5 940L150.35 914.15C155.2 887.517 164.9 835.817 169.75 783.333C174.6 730.85 174.6 679.15 155.2 626.667C135.8 574.183 97 522.483 111.55 470C126.1 417.517 194 365.817 213.4 313.333C232.8 260.85 203.7 209.15 208.55 156.667C213.4 104.183 252.2 52.4833 271.6 25.85L291 -6.10352e-05H0V25.85C0 52.4833 0 104.183 0 156.667C0 209.15 0 260.85 0 313.333C0 365.817 0 417.517 0 470C0 522.483 0 574.183 0 626.667C0 679.15 0 730.85 0 783.333C0 835.817 0 887.517 0 914.15V940H145.5Z" fill="#9CCC7F"/>
</svg>
