<svg width="430" height="100" viewBox="0 0 430 100" fill="none" xmlns="http://www.w3.org/2000/svg">
<path d="M0 25C0 11.1929 11.1929 0 25 0H405C418.807 0 430 11.1929 430 25V100H0V25Z" fill="#1A7F5D"/>
<path d="M378.5 34C380.407 34 382.272 34.5132 383.857 35.4746C385.443 36.4361 386.679 37.8027 387.409 39.4015C388.139 41.0004 388.33 42.7597 387.958 44.457C387.586 46.1544 386.667 47.7135 385.319 48.9372C383.97 50.1609 382.252 50.9943 380.381 51.3319C378.511 51.6695 376.572 51.4962 374.81 50.8339C373.048 50.1717 371.542 49.0502 370.482 47.6112C369.423 46.1723 368.857 44.4806 368.857 42.75L368.867 42.3702C368.975 40.1176 370.037 37.9896 371.831 36.4302C373.626 34.8707 376.015 34.0001 378.5 34ZM382.357 55C384.915 55 387.367 55.9219 389.176 57.5628C390.984 59.2038 392 61.4294 392 63.75V65.5C392 66.4283 391.594 67.3185 390.87 67.9749C390.147 68.6313 389.166 69 388.143 69H368.857C367.834 69 366.853 68.6313 366.13 67.9749C365.406 67.3185 365 66.4283 365 65.5V63.75C365 61.4294 366.016 59.2038 367.824 57.5628C369.633 55.9219 372.085 55 374.643 55H382.357Z" fill="white"/>
<path d="M47.4738 64.0186V54.1117H55.5172V64.0186C55.5172 65.1084 56.4221 66 57.5281 66H63.5607C64.6666 66 65.5715 65.1084 65.5715 64.0186V50.1489H68.99C69.915 50.1489 70.3573 49.0195 69.6535 48.4251L61.2482 40.9652L52.8428 33.5053C52.0787 32.8316 50.9124 32.8316 50.1483 33.5053L33.3375 48.4251C32.6538 49.0195 33.0761 50.1489 34.0011 50.1489H37.4196V64.0186C37.4196 65.1084 38.3244 66 39.4304 66H45.463C46.5689 66 47.4738 65.1084 47.4738 64.0186Z" fill="white"/>
<path d="M304.647 68C303.709 68 302.906 67.6869 302.238 67.0608C301.571 66.4347 301.236 65.6811 301.235 64.8H308.059C308.059 65.68 307.725 66.4336 307.057 67.0608C306.39 67.688 305.586 68.0011 304.647 68ZM292.706 63.2C292.223 63.2 291.818 63.0464 291.491 62.7392C291.165 62.432 291.001 62.0523 291 61.6C291 61.1467 291.164 60.7669 291.491 60.4608C291.819 60.1547 292.224 60.0011 292.706 60H294.412V48.8C294.412 46.5867 295.123 44.6203 296.544 42.9008C297.966 41.1813 299.814 40.0544 302.088 39.52V38.4C302.088 37.7333 302.337 37.1669 302.835 36.7008C303.334 36.2347 303.937 36.0011 304.647 36C305.358 36 305.962 36.2336 306.46 36.7008C306.959 37.168 307.207 37.7344 307.206 38.4V38.92C306.922 39.4533 306.708 40.0133 306.566 40.6C306.424 41.1867 306.353 41.7867 306.353 42.4C306.353 44.6133 307.185 46.5003 308.849 48.0608C310.512 49.6213 312.524 50.4011 314.882 50.4V60H316.588C317.072 60 317.477 60.1536 317.805 60.4608C318.132 60.768 318.295 61.1477 318.294 61.6C318.294 62.0533 318.13 62.4336 317.803 62.7408C317.475 63.048 317.07 63.2011 316.588 63.2H292.706ZM314.882 47.2C313.461 47.2 312.252 46.7333 311.257 45.8C310.262 44.8667 309.765 43.7333 309.765 42.4C309.765 41.0667 310.262 39.9333 311.257 39C312.252 38.0667 313.461 37.6 314.882 37.6C316.304 37.6 317.512 38.0667 318.507 39C319.502 39.9333 320 41.0667 320 42.4C320 43.7333 319.502 44.8667 318.507 45.8C317.512 46.7333 316.304 47.2 314.882 47.2Z" fill="white"/>
<path d="M142.05 57.9H141.1V51.4816C141.1 50.7275 140.797 50.0031 140.263 49.4688L134.331 43.5372C133.797 43.0028 133.073 42.7 132.318 42.7H129.7V39.85C129.7 38.2766 128.423 37 126.85 37H111.65C110.077 37 108.8 38.2766 108.8 39.85V42.7H105.475C105.214 42.7 105 42.9138 105 43.175V44.125C105 44.3863 105.214 44.6 105.475 44.6H121.625C121.886 44.6 122.1 44.8138 122.1 45.075V46.025C122.1 46.2863 121.886 46.5 121.625 46.5H107.375C107.114 46.5 106.9 46.7138 106.9 46.975V47.925C106.9 48.1863 107.114 48.4 107.375 48.4H119.725C119.986 48.4 120.2 48.6138 120.2 48.875V49.825C120.2 50.0863 119.986 50.3 119.725 50.3H105.475C105.214 50.3 105 50.5138 105 50.775V51.725C105 51.9862 105.214 52.2 105.475 52.2H117.825C118.086 52.2 118.3 52.4138 118.3 52.675V53.625C118.3 53.8862 118.086 54.1 117.825 54.1H108.8V61.7C108.8 64.8469 111.353 67.4 114.5 67.4C117.647 67.4 120.2 64.8469 120.2 61.7H127.8C127.8 64.8469 130.353 67.4 133.5 67.4C136.647 67.4 139.2 64.8469 139.2 61.7H142.05C142.572 61.7 143 61.2725 143 60.75V58.85C143 58.3275 142.572 57.9 142.05 57.9ZM114.5 64.55C112.927 64.55 111.65 63.2734 111.65 61.7C111.65 60.1266 112.927 58.85 114.5 58.85C116.073 58.85 117.35 60.1266 117.35 61.7C117.35 63.2734 116.073 64.55 114.5 64.55ZM133.5 64.55C131.927 64.55 130.65 63.2734 130.65 61.7C130.65 60.1266 131.927 58.85 133.5 58.85C135.073 58.85 136.35 60.1266 136.35 61.7C136.35 63.2734 135.073 64.55 133.5 64.55ZM138.25 52.2H129.7V45.55H132.318L138.25 51.4816V52.2Z" fill="white"/>
<circle cx="215" cy="50" r="40" fill="#016B45"/>
<path d="M210.118 31.647V45.7646H196V55.1764H210.118V69.294H219.529V55.1764H233.647V45.7646H219.529V31.647H210.118Z" fill="white"/>
</svg>
