<svg width="20" height="23" viewBox="0 0 20 23" fill="none" xmlns="http://www.w3.org/2000/svg">
<path d="M14.7195 3.07119C16.0002 4.41024 16.7634 6.24977 16.8274 8.20695L16.8316 8.48141V13.0301V13.25L16.9238 13.4496L18.9623 17.8608L18.9623 17.8608C18.9871 17.9144 19.0011 17.9777 18.9999 18.0445C18.9988 18.1113 18.9826 18.1734 18.9565 18.2249C18.9305 18.2762 18.8976 18.3118 18.8668 18.3339C18.8426 18.3513 18.8197 18.3607 18.7996 18.3651L18.7409 18.3684H1.23103H1.23071C1.2079 18.3684 1.18144 18.3627 1.15273 18.3464C1.12346 18.3298 1.09012 18.3011 1.0612 18.2559C1.0321 18.2104 1.01037 18.1525 1.00284 18.0868C0.99602 18.0271 1.00165 17.9675 1.0179 17.9133L1.048 17.8389L3.07634 13.4496L3.16857 13.25V13.0301V8.47368C3.16857 6.46722 3.90596 4.55725 5.19676 3.16062C6.4851 1.76663 8.21483 1 10.0001 1H10.0001C11.7456 0.999969 13.4393 1.73279 14.7195 3.07119ZM8.8813 22H8.88096C8.59364 22.0001 8.30176 21.8834 8.06743 21.6483C8.04528 21.626 8.02382 21.6029 8.0031 21.5789H11.997C11.7816 21.8285 11.504 21.9678 11.2244 21.9955L11.1008 22H8.8813Z" stroke="#705D3F" stroke-width="2"/>
</svg>
