<svg width="357" height="923" viewBox="0 0 357 923" fill="none" xmlns="http://www.w3.org/2000/svg">
<path fill-rule="evenodd" clip-rule="evenodd" d="M178.5 0L172.55 25.3825C166.6 51.5342 154.7 102.299 148.75 153.833C142.8 205.367 142.8 256.133 166.6 307.667C190.4 359.201 238 409.966 220.15 461.5C202.3 513.034 119 563.799 95.2 615.333C71.4 666.867 107.1 717.633 101.15 769.167C95.2 820.701 47.6 871.466 23.8 897.617L0 923H357V897.617C357 871.466 357 820.701 357 769.167C357 717.633 357 666.867 357 615.333C357 563.799 357 513.034 357 461.5C357 409.966 357 359.201 357 307.667C357 256.133 357 205.367 357 153.833C357 102.299 357 51.5342 357 25.3825V0L178.5 0Z" fill="#9CCC7F"/>
</svg>
