<svg width="40" height="43" viewBox="0 0 40 43" fill="none" xmlns="http://www.w3.org/2000/svg">
<path d="M37.8428 9.87362L21.3428 0.845493C20.902 0.601897 20.4065 0.474121 19.9028 0.474121C19.3991 0.474121 18.9037 0.601897 18.4628 0.845493L1.96283 9.87737C1.49162 10.1352 1.09828 10.5148 0.823867 10.9765C0.549457 11.4383 0.404051 11.9652 0.402832 12.5024V30.4349C0.404051 30.972 0.549457 31.499 0.823867 31.9607C1.09828 32.4224 1.49162 32.802 1.96283 33.0599L18.4628 42.0917C18.9037 42.3353 19.3991 42.4631 19.9028 42.4631C20.4065 42.4631 20.902 42.3353 21.3428 42.0917L37.8428 33.0599C38.314 32.802 38.7074 32.4224 38.9818 31.9607C39.2562 31.499 39.4016 30.972 39.4028 30.4349V12.5042C39.4026 11.9662 39.2577 11.438 38.9832 10.9752C38.7088 10.5124 38.3149 10.1319 37.8428 9.87362ZM19.9028 3.47049L34.9685 11.7205L29.3847 14.7749L14.3191 6.52487L19.9028 3.47049ZM19.9028 19.9705L4.83721 11.7205L11.1953 8.23862L26.261 16.4886L19.9028 19.9705ZM36.4028 30.4424L21.4028 38.653V22.5636L27.4028 19.2805V25.9705C27.4028 26.3683 27.5609 26.7498 27.8422 27.0312C28.1235 27.3125 28.505 27.4705 28.9028 27.4705C29.3007 27.4705 29.6822 27.3125 29.9635 27.0312C30.2448 26.7498 30.4028 26.3683 30.4028 25.9705V17.638L36.4028 14.3549V30.4349V30.4424Z" fill="#07744E"/>
</svg>
