<svg width="52" height="50" viewBox="0 0 52 50" fill="none" xmlns="http://www.w3.org/2000/svg">
<path d="M16.8551 31.905L13.2126 35.5475L9.67341 32.0083C7.39462 34.9274 5.94848 38.4088 5.48841 42.0833H10.5001V47.25H0.166748V44.6667C0.166748 32.1633 9.05341 21.7525 20.8334 19.35V14.1833L0.166748 5.91667V0.75H51.8334V5.91667L31.1667 14.1833V19.35C42.9467 21.7525 51.8334 32.1633 51.8334 44.6667V47.25H41.5001V42.0833H46.5117C46.0517 38.4088 44.6055 34.9274 42.3267 32.0083L38.7876 35.5475L35.1451 31.905L38.6842 28.34C35.7556 26.0609 32.2658 24.6149 28.5834 24.155V29.1667H23.4167V24.155C19.6451 24.62 16.1834 26.1183 13.3159 28.34L16.8551 31.905ZM26.0001 39.5C27.3704 39.5 28.6845 40.0443 29.6535 41.0133C30.6224 41.9822 31.1667 43.2964 31.1667 44.6667C31.1667 46.0369 30.6224 47.3511 29.6535 48.32C28.6845 49.289 27.3704 49.8333 26.0001 49.8333C25.1734 49.8333 24.3984 49.6525 23.7267 49.2908L13.7809 44.6667L23.7267 40.0425C24.3984 39.6808 25.1734 39.5 26.0001 39.5Z" fill="white"/>
</svg>
