<svg width="23" height="24" viewBox="0 0 23 24" fill="none" xmlns="http://www.w3.org/2000/svg">
<path d="M21.5734 5.58593L12.1984 1.08593C11.9816 0.981896 11.7424 0.927734 11.5 0.927734C11.2576 0.927734 11.0184 0.981896 10.8016 1.08593L1.42656 5.58593C1.16706 5.71042 0.948784 5.9018 0.796176 6.13864C0.643567 6.37549 0.562655 6.64844 0.5625 6.92693V17.0729C0.562655 17.3514 0.643567 17.6244 0.796176 17.8612C0.948784 18.0981 1.16706 18.2894 1.42656 18.4139L10.8016 22.9139C11.0184 23.018 11.2576 23.0721 11.5 23.0721C11.7424 23.0721 11.9816 23.018 12.1984 22.9139L21.5734 18.4139C21.8329 18.2894 22.0512 18.0981 22.2038 17.8612C22.3564 17.6244 22.4373 17.3514 22.4375 17.0729V6.92693C22.4373 6.64844 22.3564 6.37549 22.2038 6.13864C22.0512 5.9018 21.8329 5.71042 21.5734 5.58593ZM8.17344 8.84543L16.5219 4.83743L19.8937 6.45593L11.5 10.4144L8.17344 8.84543ZM11.5 2.42693L14.775 3.99893L6.41094 8.01443L3.10625 6.45593L11.5 2.42693ZM2.125 7.66493L5.64062 9.32243V13.4999C5.64062 13.6988 5.72294 13.8896 5.86945 14.0303C6.01596 14.1709 6.21467 14.2499 6.42188 14.2499C6.62908 14.2499 6.82779 14.1709 6.9743 14.0303C7.12081 13.8896 7.20312 13.6988 7.20312 13.4999V10.0589L10.7188 11.7164V21.1979L2.125 17.0729V7.66493ZM12.2812 21.1979V11.7179L20.875 7.66493V17.0729L12.2812 21.1979Z" fill="#07744E"/>
</svg>
