<svg width="390" height="395" viewBox="0 0 390 395" fill="none" xmlns="http://www.w3.org/2000/svg">
<path d="M114.131 293.691C80.9591 402.983 4.88871 402.471 -29 388.554V-13H243.748C295.349 -8.39502 396.769 24.1468 389.643 117.474C382.518 210.802 319.921 213.258 289.513 202.82C244.874 187.572 147.303 184.4 114.131 293.691Z" fill="#016B45"/>
<path d="M189.601 -5.26904C290.407 62.5911 229.41 123.789 186.31 145.905C129.626 170.079 72.9009 159.957 26.6883 139.086C25.0801 138.359 23.4847 137.62 21.9025 136.869C-2.5284 126.363 -49.8912 117.344 -77 152.815L-60.9498 78.0176L-32.8358 -53L189.601 -5.26904Z" fill="#1A7F5D"/>
</svg>
