<svg width="430" height="912" viewBox="0 0 430 912" fill="none" xmlns="http://www.w3.org/2000/svg">
<path d="M376.318 388.073C462.474 174.845 333.942 22.719 258.907 -26.6905L486.016 -25.6028L481.527 911.778L-10.3274 909.422C-51.5594 847.313 66.6279 738.661 130.876 692.098C269.459 588.122 352.247 446.091 376.318 388.073Z" fill="#016B45"/>
<path d="M72.6984 374.073C-13.4584 160.845 115.074 8.71901 190.109 -40.6905L-37 -39.6028L-32.5106 897.778L459.343 895.423C500.576 833.313 382.388 724.661 318.14 678.098C179.557 574.122 96.7692 432.091 72.6984 374.073Z" fill="#84B567"/>
<path fill-rule="evenodd" clip-rule="evenodd" d="M-294 799.24L-227 745.24C-161 691.24 -27 583.24 106 589.24C239 595.24 373 715.24 506 751.24C639 787.24 773 739.24 839 715.24L906 691.24V835.24H839C773 835.24 639 835.24 506 835.24C373 835.24 239 835.24 106 835.24C-27 835.24 -161 835.24 -227 835.24H-294V799.24Z" fill="#DAE8D1"/>
<path fill-rule="evenodd" clip-rule="evenodd" d="M-583 701.608L-536.958 725.66C-490.917 749.712 -398.833 797.817 -306.75 821.869C-214.667 845.922 -122.583 845.922 -30.5 809.843C61.5834 773.765 153.667 701.608 245.75 671.542C337.833 641.477 429.917 653.503 475.958 659.516L522 665.529V882H475.958C429.917 882 337.833 882 245.75 882C153.667 882 61.5834 882 -30.5 882C-122.583 882 -214.667 882 -306.75 882C-398.833 882 -490.917 882 -536.958 882H-583V701.608Z" fill="#84B567"/>
<path fill-rule="evenodd" clip-rule="evenodd" d="M-225 782.125L-193.007 775.165C-161.013 768.205 -97.737 754.284 -33.75 737.832C30.237 720.747 93.513 699.866 157.5 720.747C221.487 740.996 284.763 802.374 348.75 812.498C412.737 822.622 476.013 782.125 508.006 761.244L540 740.996V884H508.006C476.013 884 412.737 884 348.75 884C284.763 884 221.487 884 157.5 884C93.513 884 30.237 884 -33.75 884C-97.737 884 -161.013 884 -193.007 884H-225V782.125Z" fill="#016B45"/>
</svg>
