<svg width="430" height="321" viewBox="0 0 430 321" fill="none" xmlns="http://www.w3.org/2000/svg">
<path d="M479.568 145.976C556.488 168.442 556.876 212.574 547.456 231.832L255.262 396.461L-90.5683 196.627C-88.6376 187.602 -78.2529 177.782 -55.6362 165.04C8.42256 128.947 47.9596 144.552 70.4038 157.521C98.0869 173.518 120.422 194.76 137.411 203.467C190.285 227.359 263.17 186.895 299.906 167.472C366.423 132.304 434.445 132.797 479.568 145.976Z" fill="#1A7F5D"/>
<rect x="-0.450867" y="282.862" width="104" height="62" fill="#016B45"/>
<path d="M335.9 233.244C408.879 193.035 470.718 248.978 469.235 280.504L219.058 421.46L-69.4508 254.749C30.1536 229.244 86.2524 252.271 129.862 282.644C173.378 312.953 227.831 304.363 258.036 290.755C283.662 279.21 314.027 245.568 335.9 233.244Z" fill="#016B45"/>
<rect x="335" y="268" width="104" height="62" fill="#016B45"/>
</svg>
