<svg width="29" height="33" viewBox="0 0 29 33" fill="none" xmlns="http://www.w3.org/2000/svg">
<path d="M13.6471 33C12.7088 33 11.9059 32.6771 11.2384 32.0314C10.5708 31.3857 10.2364 30.6086 10.2353 29.7H17.0588C17.0588 30.6075 16.725 31.3846 16.0575 32.0314C15.3899 32.6782 14.5864 33.0011 13.6471 33ZM1.70588 28.05C1.22255 28.05 0.817686 27.8916 0.491294 27.5748C0.164902 27.258 0.00113725 26.8664 0 26.4C0 25.9325 0.163765 25.5409 0.491294 25.2252C0.818824 24.9095 1.22369 24.7511 1.70588 24.75H3.41176V13.2C3.41176 10.9175 4.12255 8.88965 5.54412 7.11645C6.96569 5.34325 8.81372 4.1811 11.0882 3.63V2.475C11.0882 1.7875 11.3373 1.2034 11.8354 0.7227C12.3335 0.242 12.9374 0.0011 13.6471 0C14.3578 0 14.9623 0.2409 15.4604 0.7227C15.9585 1.2045 16.207 1.7886 16.2059 2.475V3.01125C15.9216 3.56125 15.7083 4.13875 15.5662 4.74375C15.424 5.34875 15.3529 5.9675 15.3529 6.6C15.3529 8.8825 16.1848 10.8284 17.8486 12.4377C19.5125 14.047 21.5237 14.8511 23.8824 14.85V24.75H25.5882C26.0716 24.75 26.477 24.9084 26.8045 25.2252C27.1321 25.542 27.2953 25.9336 27.2941 26.4C27.2941 26.8675 27.1304 27.2596 26.8028 27.5764C26.4753 27.8932 26.0704 28.0511 25.5882 28.05H1.70588ZM23.8824 11.55C22.4608 11.55 21.2525 11.0687 20.2574 10.1062C19.2623 9.14375 18.7647 7.975 18.7647 6.6C18.7647 5.225 19.2623 4.05625 20.2574 3.09375C21.2525 2.13125 22.4608 1.65 23.8824 1.65C25.3039 1.65 26.5123 2.13125 27.5074 3.09375C28.5025 4.05625 29 5.225 29 6.6C29 7.975 28.5025 9.14375 27.5074 10.1062C26.5123 11.0687 25.3039 11.55 23.8824 11.55Z" fill="white"/>
</svg>
