<svg width="37" height="33" viewBox="0 0 37 33" fill="none" xmlns="http://www.w3.org/2000/svg">
<path d="M36.075 22.6875H35.15V15.7201C35.15 14.9016 34.8552 14.1152 34.3348 13.5352L28.5594 7.09629C28.0391 6.51621 27.3337 6.1875 26.5995 6.1875H24.05V3.09375C24.05 1.38574 22.807 0 21.275 0H6.475C4.94297 0 3.7 1.38574 3.7 3.09375V6.1875H0.4625C0.208125 6.1875 0 6.41953 0 6.70312V7.73437C0 8.01797 0.208125 8.25 0.4625 8.25H16.1875C16.4419 8.25 16.65 8.48203 16.65 8.76563V9.79687C16.65 10.0805 16.4419 10.3125 16.1875 10.3125H2.3125C2.05812 10.3125 1.85 10.5445 1.85 10.8281V11.8594C1.85 12.143 2.05812 12.375 2.3125 12.375H14.3375C14.5919 12.375 14.8 12.607 14.8 12.8906V13.9219C14.8 14.2055 14.5919 14.4375 14.3375 14.4375H0.4625C0.208125 14.4375 0 14.6695 0 14.9531V15.9844C0 16.268 0.208125 16.5 0.4625 16.5H12.4875C12.7419 16.5 12.95 16.732 12.95 17.0156V18.0469C12.95 18.3305 12.7419 18.5625 12.4875 18.5625H3.7V26.8125C3.7 30.2285 6.18594 33 9.25 33C12.3141 33 14.8 30.2285 14.8 26.8125H22.2C22.2 30.2285 24.6859 33 27.75 33C30.8141 33 33.3 30.2285 33.3 26.8125H36.075C36.5837 26.8125 37 26.3484 37 25.7812V23.7187C37 23.1516 36.5837 22.6875 36.075 22.6875ZM9.25 29.9062C7.71797 29.9062 6.475 28.5205 6.475 26.8125C6.475 25.1045 7.71797 23.7187 9.25 23.7187C10.782 23.7187 12.025 25.1045 12.025 26.8125C12.025 28.5205 10.782 29.9062 9.25 29.9062ZM27.75 29.9062C26.218 29.9062 24.975 28.5205 24.975 26.8125C24.975 25.1045 26.218 23.7187 27.75 23.7187C29.282 23.7187 30.525 25.1045 30.525 26.8125C30.525 28.5205 29.282 29.9062 27.75 29.9062ZM32.375 16.5H24.05V9.28125H26.5995L32.375 15.7201V16.5Z" fill="white"/>
</svg>
