<svg width="37" height="33" viewBox="0 0 37 33" fill="none" xmlns="http://www.w3.org/2000/svg">
<path d="M14.4738 31.0186V21.1117H22.5172V31.0186C22.5172 32.1084 23.4221 33 24.5281 33H30.5607C31.6666 33 32.5715 32.1084 32.5715 31.0186V17.1489H35.99C36.915 17.1489 37.3573 16.0195 36.6535 15.4251L28.2482 7.96518L19.8428 0.505254C19.0787 -0.168418 17.9124 -0.168418 17.1483 0.505254L0.337526 15.4251C-0.346164 16.0195 0.0761146 17.1489 1.00111 17.1489H4.41956V31.0186C4.41956 32.1084 5.32444 33 6.43041 33H12.463C13.5689 33 14.4738 32.1084 14.4738 31.0186Z" fill="white"/>
</svg>
