<svg width="40" height="42" viewBox="0 0 40 42" fill="none" xmlns="http://www.w3.org/2000/svg">
<path d="M37.9401 9.40292L21.4401 0.374789C20.9992 0.131194 20.5037 0.00341797 20.0001 0.00341797C19.4964 0.00341797 19.0009 0.131194 18.5601 0.374789L2.06006 9.40666C1.58885 9.66449 1.1955 10.0441 0.921096 10.5058C0.646686 10.9676 0.50128 11.4945 0.500061 12.0317V29.9642C0.50128 30.5013 0.646686 31.0282 0.921096 31.49C1.1955 31.9517 1.58885 32.3313 2.06006 32.5892L18.5601 41.621C19.0009 41.8646 19.4964 41.9924 20.0001 41.9924C20.5037 41.9924 20.9992 41.8646 21.4401 41.621L37.9401 32.5892C38.4113 32.3313 38.8046 31.9517 39.079 31.49C39.3534 31.0282 39.4988 30.5013 39.5001 29.9642V12.0335C39.4999 11.4955 39.3549 10.9673 39.0805 10.5045C38.806 10.0417 38.4121 9.6612 37.9401 9.40292ZM20.0001 2.99979L35.0657 11.2498L29.4819 14.3042L14.4163 6.05416L20.0001 2.99979ZM20.0001 19.4998L4.93444 11.2498L11.2926 7.76791L26.3582 16.0179L20.0001 19.4998ZM36.5001 29.9717L21.5001 38.1823V22.0929L27.5001 18.8098V25.4998C27.5001 25.8976 27.6581 26.2791 27.9394 26.5605C28.2207 26.8418 28.6022 26.9998 29.0001 26.9998C29.3979 26.9998 29.7794 26.8418 30.0607 26.5605C30.342 26.2791 30.5001 25.8976 30.5001 25.4998V17.1673L36.5001 13.8842V29.9642V29.9717Z" fill="white"/>
</svg>
