<svg width="25" height="33" viewBox="0 0 25 33" fill="none" xmlns="http://www.w3.org/2000/svg">
<path d="M12.5 0C14.2659 0 15.9922 0.483854 17.4604 1.39038C18.9287 2.2969 20.0731 3.58537 20.7489 5.09286C21.4247 6.60035 21.6015 8.25915 21.257 9.85949C20.9125 11.4598 20.0621 12.9298 18.8135 14.0836C17.5648 15.2374 15.9739 16.0232 14.2419 16.3415C12.5099 16.6598 10.7147 16.4964 9.08318 15.872C7.4517 15.2476 6.05725 14.1902 5.07616 12.8335C4.09508 11.4767 3.57143 9.8817 3.57143 8.25L3.58036 7.89195C3.68021 5.76799 4.66358 3.76163 6.3254 2.29129C7.98721 0.820943 10.1992 0.00012283 12.5 0ZM16.0714 19.8C18.4394 19.8 20.7104 20.6692 22.3849 22.2164C24.0593 23.7635 25 25.862 25 28.05V29.7C25 30.5752 24.6237 31.4146 23.954 32.0335C23.2842 32.6523 22.3758 33 21.4286 33H3.57143C2.62423 33 1.71582 32.6523 1.04605 32.0335C0.376274 31.4146 0 30.5752 0 29.7V28.05C0 25.862 0.940686 23.7635 2.61512 22.2164C4.28955 20.6692 6.56057 19.8 8.92857 19.8H16.0714Z" fill="white"/>
</svg>
