<svg width="39" height="39" viewBox="0 0 39 39" fill="none" xmlns="http://www.w3.org/2000/svg">
<path d="M27.3002 15.6C27.3002 17.6687 26.4784 19.6526 25.0156 21.1154C23.5528 22.5782 21.5689 23.4 19.5002 23.4C17.4315 23.4 15.4475 22.5782 13.9848 21.1154C12.522 19.6526 11.7002 17.6687 11.7002 15.6C11.7002 13.5313 12.522 11.5473 13.9848 10.0846C15.4475 8.62177 17.4315 7.79999 19.5002 7.79999C21.5689 7.79999 23.5528 8.62177 25.0156 10.0846C26.4784 11.5473 27.3002 13.5313 27.3002 15.6Z" fill="#9CCC7F"/>
<path fill-rule="evenodd" clip-rule="evenodd" d="M18.7044 38.9844C8.30408 38.5671 0 30.0027 0 19.5C0 8.73015 8.73015 0 19.5 0C30.2699 0 39 8.73015 39 19.5C39 30.2699 30.2699 39 19.5 39H19.2329C19.0561 39 18.8799 38.9948 18.7044 38.9844ZM6.98685 31.8045C6.84105 31.3858 6.79143 30.9397 6.84165 30.4992C6.89188 30.0587 7.04068 29.6351 7.27699 29.26C7.5133 28.8849 7.83107 28.5678 8.20669 28.3323C8.58232 28.0968 9.00617 27.9489 9.44678 27.8996C17.0479 27.0582 21.9989 27.1343 29.563 27.9172C30.0042 27.9631 30.4291 28.1091 30.8053 28.3441C31.1815 28.5791 31.4992 28.8968 31.7341 29.2731C31.9689 29.6494 32.1148 30.0743 32.1607 30.5155C32.2065 30.9567 32.151 31.4026 31.9985 31.8191C35.2405 28.5392 37.056 24.1117 37.05 19.5C37.05 9.80753 29.1925 1.95 19.5 1.95C9.80753 1.95 1.95 9.80753 1.95 19.5C1.95 24.2931 3.87173 28.6377 6.98685 31.8045Z" fill="#9CCC7F"/>
</svg>
