<svg width="38" height="38" viewBox="0 0 38 38" fill="none" xmlns="http://www.w3.org/2000/svg">
<circle cx="19" cy="19" r="19" fill="black"/>
<path d="M27.6227 23.1447C27.2996 23.9133 26.917 24.6208 26.4738 25.2713C25.8697 26.158 25.3751 26.7719 24.9938 27.1127C24.4029 27.6722 23.7698 27.9587 23.0918 27.975C22.605 27.975 22.018 27.8324 21.3348 27.5432C20.6492 27.2553 20.0192 27.1127 19.4432 27.1127C18.8391 27.1127 18.1911 27.2553 17.4981 27.5432C16.804 27.8324 16.2449 27.9832 15.8174 27.9981C15.1672 28.0266 14.5191 27.7319 13.8723 27.1127C13.4594 26.742 12.943 26.1064 12.3243 25.2061C11.6606 24.2446 11.1149 23.1297 10.6874 21.8587C10.2295 20.4857 10 19.1563 10 17.8692C10 16.3948 10.3095 15.1232 10.9293 14.0576C11.4164 13.2017 12.0645 12.5265 12.8756 12.0308C13.6867 11.5351 14.5631 11.2826 15.5068 11.2664C16.0233 11.2664 16.7005 11.4309 17.542 11.7541C18.3812 12.0783 18.9201 12.2428 19.1563 12.2428C19.3329 12.2428 19.9315 12.0505 20.9463 11.6671C21.9059 11.3116 22.7158 11.1644 23.3793 11.2224C25.1772 11.3718 26.5279 12.1014 27.4262 13.416C25.8183 14.419 25.0229 15.8238 25.0387 17.626C25.0532 19.0297 25.5479 20.1979 26.52 21.1254C26.9606 21.5558 27.4526 21.8885 28 22.1248C27.8813 22.4793 27.756 22.8188 27.6227 23.1447ZM23.4993 6.44013C23.4993 7.54038 23.1089 8.56768 22.3306 9.51854C21.3915 10.6489 20.2555 11.3021 19.0236 11.199C19.0079 11.067 18.9988 10.9281 18.9988 10.7821C18.9988 9.7259 19.4454 8.59552 20.2386 7.67127C20.6346 7.20331 21.1382 6.81421 21.7489 6.50381C22.3583 6.19805 22.9348 6.02896 23.4769 6C23.4927 6.14709 23.4993 6.2942 23.4993 6.44013Z" fill="white"/>
</svg>
