<svg width="38" height="38" viewBox="0 0 38 38" fill="none" xmlns="http://www.w3.org/2000/svg">
<rect x="16.1225" y="35.6987" width="5.75758" height="2.30303" fill="white"/>
<circle cx="19.001" cy="19.001" r="19.001" fill="white"/>
<path d="M38.002 19.1171C38.002 8.55901 29.4949 0 19.001 0C8.50702 0 0 8.55901 0 19.1171C0 28.659 6.94838 36.5678 16.0321 38.002V24.6431H11.2076V19.1171H16.0321V14.9054C16.0321 10.1141 18.8688 7.46762 23.209 7.46762C25.2879 7.46762 27.4623 7.841 27.4623 7.841V12.5456H25.0664C22.706 12.5456 21.9699 14.0192 21.9699 15.531V19.1171H27.2397L26.3973 24.6431H21.9699V38.002C31.0536 36.5678 38.002 28.659 38.002 19.1171Z" fill="#1877F2"/>
</svg>
