<svg width="38" height="38" viewBox="0 0 38 38" fill="none" xmlns="http://www.w3.org/2000/svg">
<path fill-rule="evenodd" clip-rule="evenodd" d="M37.241 19.4322C37.241 18.0849 37.1201 16.7895 36.8955 15.5458H19.001V22.8954H29.2264C28.786 25.2704 27.4473 27.2826 25.4351 28.6299V33.3972H31.5755C35.1682 30.0895 37.241 25.2185 37.241 19.4322Z" fill="#4285F4"/>
<path fill-rule="evenodd" clip-rule="evenodd" d="M19 37.9991C24.13 37.9991 28.4309 36.2978 31.5746 33.396L25.4341 28.6287C23.7328 29.7687 21.5564 30.4423 19 30.4423C14.0514 30.4423 9.86275 27.1 8.36866 22.6091H2.02094V27.5319C5.1473 33.7414 11.5728 37.9991 19 37.9991Z" fill="#34A853"/>
<path fill-rule="evenodd" clip-rule="evenodd" d="M8.36864 22.6101C7.98864 21.4701 7.77273 20.2523 7.77273 19.0001C7.77273 17.7478 7.98864 16.5301 8.36864 15.3901V10.4673H2.02091C0.734091 13.0323 0 15.9342 0 19.0001C0 22.066 0.734091 24.9678 2.02091 27.5328L8.36864 22.6101Z" fill="#FBBC05"/>
<path fill-rule="evenodd" clip-rule="evenodd" d="M19 7.55682C21.7896 7.55682 24.2941 8.51546 26.2632 10.3982L31.7128 4.94864C28.4223 1.88273 24.1214 0 19 0C11.5728 0 5.1473 4.25773 2.02094 10.4673L8.36866 15.39C9.86275 10.8991 14.0514 7.55682 19 7.55682Z" fill="#EA4335"/>
</svg>
