<svg width="430" height="333" viewBox="0 0 430 333" fill="none" xmlns="http://www.w3.org/2000/svg">
<path d="M171.581 287.836C120.423 349.509 35.878 334.891 0 319.874L0 0L429.903 0C447.63 60.4707 422.516 93.9431 407.743 103.121C378.618 121.213 319.736 107.159 277.949 103.121C232.363 98.7154 202.435 112.072 188.676 125.758C169.049 145.281 168.415 185.438 178.546 212.86C191.901 249.01 178.968 278.158 171.581 287.836Z" fill="#016B45"/>
<path d="M91.2927 209.016C86.7906 273.02 28.555 270.354 0 261.019L0 0L267 0C251.993 46.4035 186.963 50.9827 153.822 53.004C80.0375 57.5043 96.9204 129.01 91.2927 209.016Z" fill="#1A7F5D"/>
<rect y="198" width="78" height="109" fill="#1A7F5D"/>
</svg>
