<svg width="430" height="182" viewBox="0 0 430 182" fill="none" xmlns="http://www.w3.org/2000/svg">
<path fill-rule="evenodd" clip-rule="evenodd" d="M0 3.28727L18.2011 1.71587C35.2646 0.144477 71.6667 -2.99831 106.931 7.21575C143.333 17.4298 178.598 41.7864 215 52.0005C250.265 62.2145 286.667 59.0718 321.931 48.8577C358.333 38.6436 393.598 20.5726 411.799 11.9299L430 3.28727V74H411.799C393.598 74 358.333 74 321.931 74C286.667 74 250.265 74 215 74C178.598 74 143.333 74 106.931 74C71.6667 74 35.2646 74 18.2011 74H0V3.28727Z" fill="#1A7F5D"/>
<rect y="67" width="430" height="115" fill="#1A7F5D"/>
<rect y="141" width="430" height="41" fill="#016B45"/>
<path fill-rule="evenodd" clip-rule="evenodd" d="M430 90.6654L411.799 89.3912C394.735 88.1171 358.333 85.5689 323.069 93.8506C286.667 102.132 251.402 121.881 215 130.163C179.735 138.444 143.333 135.896 108.069 127.614C71.6666 119.333 36.4021 104.68 18.201 97.6729L-3.05176e-05 90.6654V148H18.201C36.4021 148 71.6666 148 108.069 148C143.333 148 179.735 148 215 148C251.402 148 286.667 148 323.069 148C358.333 148 394.735 148 411.799 148H430V90.6654Z" fill="#016B45"/>
</svg>
