<svg width="22" height="22" viewBox="0 0 22 22" fill="none" xmlns="http://www.w3.org/2000/svg">
<path d="M1.83691 18.4769C1.83691 17.2111 2.33597 15.9971 3.2243 15.1021C4.11263 14.2071 5.31747 13.7042 6.57376 13.7042H16.0474C17.3037 13.7042 18.5086 14.2071 19.3969 15.1021C20.2852 15.9971 20.7843 17.2111 20.7843 18.4769C20.7843 19.1097 20.5348 19.7167 20.0906 20.1642C19.6464 20.6118 19.044 20.8632 18.4159 20.8632H4.20534C3.57719 20.8632 2.97477 20.6118 2.53061 20.1642C2.08644 19.7167 1.83691 19.1097 1.83691 18.4769Z" stroke="#016B45" stroke-width="1.78947" stroke-linejoin="round"/>
<path d="M11.3107 8.93154C13.2728 8.93154 14.8633 7.32895 14.8633 5.35206C14.8633 3.37517 13.2728 1.77258 11.3107 1.77258C9.34862 1.77258 7.75806 3.37517 7.75806 5.35206C7.75806 7.32895 9.34862 8.93154 11.3107 8.93154Z" stroke="#016B45" stroke-width="1.78947"/>
</svg>
