<svg width="31" height="30" viewBox="0 0 31 30" fill="none" xmlns="http://www.w3.org/2000/svg">
<path d="M9.90106 0.369141C10.5334 1.0384 10.95 1.84544 11.1893 2.71702C11.5779 4.13278 11.5531 5.71901 11.4224 7.33672C11.1607 10.5723 10.5089 13.9777 11.2695 16.091C11.9835 18.0746 13.1283 19.2527 14.3984 19.8319C14.9447 20.0812 15.5198 20.2191 16.1016 20.2548C17.4922 16.1968 17.1955 11.0181 14.9075 7.51791C17.9368 10.5253 19.3677 15.0664 18.4433 19.8261L17.8932 20.0462C18.065 19.9951 18.2342 19.936 18.4003 19.8689C21.0181 18.8171 23.1603 15.7381 22.269 11.2239C21.8595 9.14983 20.4543 6.22566 18.1027 3.9602C16.0682 2.00044 13.3519 0.517781 9.901 0.369265L9.90106 0.369141ZM27.6922 11.8123C27.6396 12.5667 27.4016 13.2792 27.0306 13.9263C26.382 15.0574 25.3736 16.0311 24.2817 16.9561C22.0979 18.806 19.5792 20.5197 18.7487 22.2693C17.9621 23.9268 17.9415 25.3402 18.3611 26.4644C18.5404 26.9455 18.8087 27.389 19.1521 27.7717C22.517 26.1016 25.5257 22.727 26.2825 19.1657C26.2873 22.8845 24.3635 26.5657 20.8554 28.9486C23.0984 29.8555 26.2611 29.2625 28.4814 25.9714C29.51 24.4466 30.4586 21.7753 30.4118 18.9338C30.3721 16.5216 29.6434 13.9939 27.6923 11.8125L27.6922 11.8123ZM1.07293 16.3931C0.4788 19.2535 1.11729 21.807 2.29465 23.9159C3.68152 26.3998 5.8459 28.2414 7.50261 29.0499C11.0782 30.7949 14.1133 29.7337 15.6004 27.8322C11.3657 27.5142 7.85083 25.2838 5.9873 22.061C8.43199 24.7687 12.7323 26.1941 16.4854 25.9656C16.591 25.4634 16.601 24.9459 16.5149 24.44C16.3135 23.2576 15.5832 22.0429 14.0694 20.9991C12.4715 19.8974 9.43035 19.6673 6.60988 19.152C5.1997 18.8945 3.83771 18.5541 2.7079 17.8973C2.06114 17.5213 1.49784 17.0207 1.07306 16.3931L1.07293 16.3931Z" fill="white"/>
</svg>
