<svg width="430" height="206" viewBox="0 0 430 206" fill="none" xmlns="http://www.w3.org/2000/svg">
<path fill-rule="evenodd" clip-rule="evenodd" d="M453 14.253L423.958 32.232C394.917 50.2109 336.833 86.1687 278.75 80.1757C220.667 74.1828 162.583 26.239 104.5 8.26007C46.4167 -9.71884 -11.6667 2.2671 -69.75 38.2249C-127.833 74.1828 -185.917 134.112 -214.958 164.077L-244 194.042V230H-214.958C-185.917 230 -127.833 230 -69.75 230C-11.6667 230 46.4167 230 104.5 230C162.583 230 220.667 230 278.75 230C336.833 230 394.917 230 423.958 230H453V14.253Z" fill="#016B45"/>
</svg>
