<svg width="32" height="32" viewBox="0 0 32 32" fill="none" xmlns="http://www.w3.org/2000/svg">
<g clip-path="url(#clip0_583_236)">
<path d="M6.125 5C4.4 5 3 6.37466 3 8.06844V10.9209C3.00067 11.5771 3.17994 12.2213 3.51927 12.7866C3.85859 13.352 4.34564 13.8181 4.93 14.1366L12.12 18.0617C10.614 18.8083 9.4083 20.0316 8.69773 21.5339C7.98716 23.0363 7.8132 24.7301 8.20398 26.3415C8.59475 27.953 9.52742 29.388 10.8513 30.4148C12.1752 31.4415 13.813 32 15.5 32C17.187 32 18.8248 31.4415 20.1487 30.4148C21.4726 29.388 22.4053 27.953 22.796 26.3415C23.1868 24.7301 23.0128 23.0363 22.3023 21.5339C21.5917 20.0316 20.386 18.8083 18.88 18.0617L26.0725 14.139C26.6568 13.82 27.1435 13.3534 27.4824 12.7876C27.8213 12.2218 28 11.5773 28 10.9209V8.06844C28 6.37466 26.6 5 24.875 5H6.125ZM13 15.7322V7.45475H18V15.7322L15.5 17.097L13 15.7322ZM20.5 24.638C20.5 25.9401 19.9732 27.1888 19.0355 28.1096C18.0979 29.0303 16.8261 29.5475 15.5 29.5475C14.1739 29.5475 12.9021 29.0303 11.9645 28.1096C11.0268 27.1888 10.5 25.9401 10.5 24.638C10.5 23.3359 11.0268 22.0872 11.9645 21.1665C12.9021 20.2458 14.1739 19.7285 15.5 19.7285C16.8261 19.7285 18.0979 20.2458 19.0355 21.1665C19.9732 22.0872 20.5 23.3359 20.5 24.638Z" fill="white"/>
</g>
<defs>
<clipPath id="clip0_583_236">
<rect width="31.6165" height="31.6165" fill="white" transform="translate(0.191772 0.111694)"/>
</clipPath>
</defs>
</svg>
