<svg width="100" height="100" viewBox="0 0 100 100" fill="none" xmlns="http://www.w3.org/2000/svg">
<g clip-path="url(#clip0_1_1335)">
<path d="M50 99.9996C53.3152 99.9996 56.4946 98.6826 58.8388 96.3384C61.183 93.9942 62.5 90.8148 62.5 87.4996H37.5C37.5 90.8148 38.817 93.9942 41.1612 96.3384C43.5054 98.6826 46.6848 99.9996 50 99.9996ZM56.2188 6.86836C56.306 5.99932 56.2101 5.12165 55.9373 4.29194C55.6645 3.46224 55.2208 2.69892 54.6349 2.05122C54.0489 1.40352 53.3337 0.885825 52.5354 0.531512C51.7371 0.1772 50.8734 -0.00585938 50 -0.00585938C49.1266 -0.00585938 48.2629 0.1772 47.4646 0.531512C46.6663 0.885825 45.9511 1.40352 45.3651 2.05122C44.7792 2.69892 44.3355 3.46224 44.0627 4.29194C43.7899 5.12165 43.694 5.99932 43.7812 6.86836C36.7159 8.30306 30.364 12.1366 25.802 17.7192C21.24 23.3018 18.7486 30.2901 18.75 37.4996C18.75 44.3621 15.625 74.9996 6.25 81.2496H93.75C84.375 74.9996 81.25 44.3621 81.25 37.4996C81.25 22.3746 70.5 9.74961 56.2188 6.86836Z" fill="black"/>
</g>
<defs>
<clipPath id="clip0_1_1335">
<rect width="100" height="100" fill="white"/>
</clipPath>
</defs>
</svg>
