<svg width="100" height="100" viewBox="0 0 100 100" fill="none" xmlns="http://www.w3.org/2000/svg">
<path d="M25 12.5V25H12.5V12.5H25ZM31.25 87.5V75C31.25 73.3424 30.5915 71.7527 29.4194 70.5806C28.2473 69.4085 26.6576 68.75 25 68.75H12.5C10.8424 68.75 9.25268 69.4085 8.08058 70.5806C6.90848 71.7527 6.25 73.3424 6.25 75V87.5C6.25 89.1576 6.90848 90.7473 8.08058 91.9194C9.25268 93.0915 10.8424 93.75 12.5 93.75H25C26.6576 93.75 28.2473 93.0915 29.4194 91.9194C30.5915 90.7473 31.25 89.1576 31.25 87.5ZM31.25 56.25V43.75C31.25 42.0924 30.5915 40.5027 29.4194 39.3306C28.2473 38.1585 26.6576 37.5 25 37.5H12.5C10.8424 37.5 9.25268 38.1585 8.08058 39.3306C6.90848 40.5027 6.25 42.0924 6.25 43.75V56.25C6.25 57.9076 6.90848 59.4973 8.08058 60.6694C9.25268 61.8415 10.8424 62.5 12.5 62.5H25C26.6576 62.5 28.2473 61.8415 29.4194 60.6694C30.5915 59.4973 31.25 57.9076 31.25 56.25ZM31.25 25V12.5C31.25 10.8424 30.5915 9.25268 29.4194 8.08058C28.2473 6.90848 26.6576 6.25 25 6.25H12.5C10.8424 6.25 9.25268 6.90848 8.08058 8.08058C6.90848 9.25268 6.25 10.8424 6.25 12.5V25C6.25 26.6576 6.90848 28.2473 8.08058 29.4194C9.25268 30.5915 10.8424 31.25 12.5 31.25H25C26.6576 31.25 28.2473 30.5915 29.4194 29.4194C30.5915 28.2473 31.25 26.6576 31.25 25ZM62.5 87.5V75C62.5 73.3424 61.8415 71.7527 60.6694 70.5806C59.4973 69.4085 57.9076 68.75 56.25 68.75H43.75C42.0924 68.75 40.5027 69.4085 39.3306 70.5806C38.1585 71.7527 37.5 73.3424 37.5 75V87.5C37.5 89.1576 38.1585 90.7473 39.3306 91.9194C40.5027 93.0915 42.0924 93.75 43.75 93.75H56.25C57.9076 93.75 59.4973 93.0915 60.6694 91.9194C61.8415 90.7473 62.5 89.1576 62.5 87.5ZM62.5 56.25V43.75C62.5 42.0924 61.8415 40.5027 60.6694 39.3306C59.4973 38.1585 57.9076 37.5 56.25 37.5H43.75C42.0924 37.5 40.5027 38.1585 39.3306 39.3306C38.1585 40.5027 37.5 42.0924 37.5 43.75V56.25C37.5 57.9076 38.1585 59.4973 39.3306 60.6694C40.5027 61.8415 42.0924 62.5 43.75 62.5H56.25C57.9076 62.5 59.4973 61.8415 60.6694 60.6694C61.8415 59.4973 62.5 57.9076 62.5 56.25ZM62.5 25V12.5C62.5 10.8424 61.8415 9.25268 60.6694 8.08058C59.4973 6.90848 57.9076 6.25 56.25 6.25H43.75C42.0924 6.25 40.5027 6.90848 39.3306 8.08058C38.1585 9.25268 37.5 10.8424 37.5 12.5V25C37.5 26.6576 38.1585 28.2473 39.3306 29.4194C40.5027 30.5915 42.0924 31.25 43.75 31.25H56.25C57.9076 31.25 59.4973 30.5915 60.6694 29.4194C61.8415 28.2473 62.5 26.6576 62.5 25ZM56.25 12.5V25H43.75V12.5H56.25ZM87.5 12.5V25H75V12.5H87.5ZM25 43.75V56.25H12.5V43.75H25ZM56.25 43.75V56.25H43.75V43.75H56.25ZM87.5 43.75H75V56.25H87.5V43.75ZM25 75V87.5H12.5V75H25ZM56.25 75V87.5H43.75V75H56.25ZM87.5 75V87.5H75V75H87.5ZM75 6.25C73.3424 6.25 71.7527 6.90848 70.5806 8.08058C69.4085 9.25268 68.75 10.8424 68.75 12.5V25C68.75 26.6576 69.4085 28.2473 70.5806 29.4194C71.7527 30.5915 73.3424 31.25 75 31.25H87.5C89.1576 31.25 90.7473 30.5915 91.9194 29.4194C93.0915 28.2473 93.75 26.6576 93.75 25V12.5C93.75 10.8424 93.0915 9.25268 91.9194 8.08058C90.7473 6.90848 89.1576 6.25 87.5 6.25H75ZM68.75 43.75C68.75 42.0924 69.4085 40.5027 70.5806 39.3306C71.7527 38.1585 73.3424 37.5 75 37.5H87.5C89.1576 37.5 90.7473 38.1585 91.9194 39.3306C93.0915 40.5027 93.75 42.0924 93.75 43.75V56.25C93.75 57.9076 93.0915 59.4973 91.9194 60.6694C90.7473 61.8415 89.1576 62.5 87.5 62.5H75C73.3424 62.5 71.7527 61.8415 70.5806 60.6694C69.4085 59.4973 68.75 57.9076 68.75 56.25V43.75ZM75 68.75C73.3424 68.75 71.7527 69.4085 70.5806 70.5806C69.4085 71.7527 68.75 73.3424 68.75 75V87.5C68.75 89.1576 69.4085 90.7473 70.5806 91.9194C71.7527 93.0915 73.3424 93.75 75 93.75H87.5C89.1576 93.75 90.7473 93.0915 91.9194 91.9194C93.0915 90.7473 93.75 89.1576 93.75 87.5V75C93.75 73.3424 93.0915 71.7527 91.9194 70.5806C90.7473 69.4085 89.1576 68.75 87.5 68.75H75Z" fill="black"/>
</svg>
