<svg width="100" height="100" viewBox="0 0 100 100" fill="none" xmlns="http://www.w3.org/2000/svg">
<path d="M6.25 15.625C6.25 13.1386 7.23772 10.754 8.99587 8.99587C10.754 7.23772 13.1386 6.25 15.625 6.25H34.375C36.8614 6.25 39.246 7.23772 41.0041 8.99587C42.7623 10.754 43.75 13.1386 43.75 15.625V34.375C43.75 36.8614 42.7623 39.246 41.0041 41.0041C39.246 42.7623 36.8614 43.75 34.375 43.75H15.625C13.1386 43.75 10.754 42.7623 8.99587 41.0041C7.23772 39.246 6.25 36.8614 6.25 34.375V15.625ZM15.625 12.5C14.7962 12.5 14.0013 12.8292 13.4153 13.4153C12.8292 14.0013 12.5 14.7962 12.5 15.625V34.375C12.5 35.2038 12.8292 35.9987 13.4153 36.5847C14.0013 37.1708 14.7962 37.5 15.625 37.5H34.375C35.2038 37.5 35.9987 37.1708 36.5847 36.5847C37.1708 35.9987 37.5 35.2038 37.5 34.375V15.625C37.5 14.7962 37.1708 14.0013 36.5847 13.4153C35.9987 12.8292 35.2038 12.5 34.375 12.5H15.625ZM56.25 15.625C56.25 13.1386 57.2377 10.754 58.9959 8.99587C60.754 7.23772 63.1386 6.25 65.625 6.25H84.375C86.8614 6.25 89.246 7.23772 91.0041 8.99587C92.7623 10.754 93.75 13.1386 93.75 15.625V34.375C93.75 36.8614 92.7623 39.246 91.0041 41.0041C89.246 42.7623 86.8614 43.75 84.375 43.75H65.625C63.1386 43.75 60.754 42.7623 58.9959 41.0041C57.2377 39.246 56.25 36.8614 56.25 34.375V15.625ZM65.625 12.5C64.7962 12.5 64.0013 12.8292 63.4153 13.4153C62.8292 14.0013 62.5 14.7962 62.5 15.625V34.375C62.5 35.2038 62.8292 35.9987 63.4153 36.5847C64.0013 37.1708 64.7962 37.5 65.625 37.5H84.375C85.2038 37.5 85.9987 37.1708 86.5847 36.5847C87.1708 35.9987 87.5 35.2038 87.5 34.375V15.625C87.5 14.7962 87.1708 14.0013 86.5847 13.4153C85.9987 12.8292 85.2038 12.5 84.375 12.5H65.625ZM6.25 65.625C6.25 63.1386 7.23772 60.754 8.99587 58.9959C10.754 57.2377 13.1386 56.25 15.625 56.25H34.375C36.8614 56.25 39.246 57.2377 41.0041 58.9959C42.7623 60.754 43.75 63.1386 43.75 65.625V84.375C43.75 86.8614 42.7623 89.246 41.0041 91.0041C39.246 92.7623 36.8614 93.75 34.375 93.75H15.625C13.1386 93.75 10.754 92.7623 8.99587 91.0041C7.23772 89.246 6.25 86.8614 6.25 84.375V65.625ZM15.625 62.5C14.7962 62.5 14.0013 62.8292 13.4153 63.4153C12.8292 64.0013 12.5 64.7962 12.5 65.625V84.375C12.5 85.2038 12.8292 85.9987 13.4153 86.5847C14.0013 87.1708 14.7962 87.5 15.625 87.5H34.375C35.2038 87.5 35.9987 87.1708 36.5847 86.5847C37.1708 85.9987 37.5 85.2038 37.5 84.375V65.625C37.5 64.7962 37.1708 64.0013 36.5847 63.4153C35.9987 62.8292 35.2038 62.5 34.375 62.5H15.625ZM56.25 65.625C56.25 63.1386 57.2377 60.754 58.9959 58.9959C60.754 57.2377 63.1386 56.25 65.625 56.25H84.375C86.8614 56.25 89.246 57.2377 91.0041 58.9959C92.7623 60.754 93.75 63.1386 93.75 65.625V84.375C93.75 86.8614 92.7623 89.246 91.0041 91.0041C89.246 92.7623 86.8614 93.75 84.375 93.75H65.625C63.1386 93.75 60.754 92.7623 58.9959 91.0041C57.2377 89.246 56.25 86.8614 56.25 84.375V65.625ZM65.625 62.5C64.7962 62.5 64.0013 62.8292 63.4153 63.4153C62.8292 64.0013 62.5 64.7962 62.5 65.625V84.375C62.5 85.2038 62.8292 85.9987 63.4153 86.5847C64.0013 87.1708 64.7962 87.5 65.625 87.5H84.375C85.2038 87.5 85.9987 87.1708 86.5847 86.5847C87.1708 85.9987 87.5 85.2038 87.5 84.375V65.625C87.5 64.7962 87.1708 64.0013 86.5847 63.4153C85.9987 62.8292 85.2038 62.5 84.375 62.5H65.625Z" fill="black"/>
</svg>
