<svg width="30" height="10" viewBox="0 0 30 10" fill="none" xmlns="http://www.w3.org/2000/svg">
<path d="M24.4848 8.12116C24.3561 8.24938 24.2846 8.41808 24.2918 8.59353C24.2918 8.76899 24.3633 8.93094 24.4991 9.05916C24.6279 9.18062 24.8066 9.25485 24.9926 9.25485C25.1785 9.25485 25.3573 9.19412 25.4931 9.07265L29.5405 5.25319C29.6049 5.19245 29.655 5.11822 29.6907 5.03725C29.7265 4.95627 29.7479 4.86854 29.7479 4.78082C29.7479 4.69309 29.7265 4.60536 29.6907 4.51764C29.655 4.43666 29.6049 4.36243 29.5405 4.3017L25.4931 0.48223C25.4288 0.421497 25.3501 0.367511 25.2643 0.333771C25.1713 0.30003 25.0784 0.279785 24.9854 0.279785C24.8924 0.279785 24.7923 0.293282 24.7065 0.327022C24.6207 0.360763 24.542 0.414749 24.4705 0.475482C24.4062 0.536216 24.3561 0.617194 24.3204 0.698172C24.2775 0.77915 24.2632 0.866876 24.2632 0.961351C24.2632 1.04908 24.2846 1.1368 24.3204 1.21778C24.3561 1.29876 24.4133 1.37299 24.4848 1.44047L28.0246 4.78082L27.3524 5.4084L24.4848 8.12116Z" fill="black"/>
<path d="M5.75893 8.12116C5.88765 8.24938 5.95916 8.41808 5.95201 8.59353C5.95201 8.76899 5.8805 8.93094 5.74463 9.05916C5.61592 9.18062 5.43714 9.25485 5.25122 9.25485C5.06529 9.25485 4.88652 9.19412 4.75065 9.07265L0.703227 5.25319C0.638868 5.19245 0.588812 5.11822 0.553057 5.03725C0.517302 4.95627 0.49585 4.86854 0.49585 4.78082C0.49585 4.69309 0.517302 4.60536 0.553057 4.51764C0.588812 4.43666 0.638868 4.36243 0.703227 4.3017L4.75065 0.48223C4.81501 0.421497 4.89367 0.367511 4.97948 0.333771C5.07245 0.30003 5.16541 0.279785 5.25837 0.279785C5.35133 0.279785 5.45145 0.293282 5.53726 0.327022C5.62307 0.360763 5.70173 0.414749 5.77324 0.475482C5.8376 0.536216 5.88765 0.617194 5.92341 0.698172C5.96631 0.77915 5.98061 0.866876 5.98061 0.961351C5.98061 1.04908 5.95916 1.1368 5.92341 1.21778C5.88765 1.29876 5.83044 1.37299 5.75893 1.44047L2.21922 4.78082L2.89141 5.4084L5.75893 8.12116Z" fill="black"/>
</svg>
