<svg width="30" height="10" viewBox="0 0 30 10" fill="none" xmlns="http://www.w3.org/2000/svg">
<path d="M24.3936 8.14536C24.2674 8.27342 24.1972 8.44193 24.2043 8.61718C24.2043 8.79244 24.2744 8.95421 24.4076 9.08227C24.5339 9.2036 24.7092 9.27775 24.8915 9.27775C25.0738 9.27775 25.2492 9.21708 25.3824 9.09575L29.3517 5.28068C29.4148 5.22001 29.4639 5.14587 29.499 5.06498C29.534 4.9841 29.5551 4.89647 29.5551 4.80885C29.5551 4.72122 29.534 4.6336 29.499 4.54597C29.4639 4.46509 29.4148 4.39094 29.3517 4.33028L25.3824 0.515201C25.3193 0.454537 25.2422 0.400614 25.158 0.366912C25.0668 0.33321 24.9757 0.312988 24.8845 0.312988C24.7933 0.312988 24.6952 0.326469 24.611 0.360171C24.5268 0.393873 24.4497 0.447797 24.3796 0.50846C24.3165 0.569124 24.2674 0.650009 24.2323 0.730894C24.1902 0.811779 24.1762 0.899405 24.1762 0.993771C24.1762 1.0814 24.1972 1.16902 24.2323 1.24991C24.2674 1.33079 24.3235 1.40494 24.3936 1.47234L27.865 4.80885L27.2057 5.43571L24.3936 8.14536Z" fill="black"/>
<path d="M6.02925 8.14536C6.15549 8.27342 6.22561 8.44193 6.2186 8.61718C6.2186 8.79244 6.14847 8.95421 6.01523 9.08227C5.889 9.2036 5.71368 9.27775 5.53134 9.27775C5.34901 9.27775 5.17369 9.21708 5.04044 9.09575L1.07117 5.28068C1.00805 5.22001 0.958965 5.14587 0.923901 5.06498C0.888836 4.9841 0.867798 4.89647 0.867798 4.80885C0.867798 4.72122 0.888836 4.6336 0.923901 4.54597C0.958965 4.46509 1.00805 4.39094 1.07117 4.33028L5.04044 0.515201C5.10356 0.454537 5.1807 0.400614 5.26485 0.366912C5.35602 0.33321 5.44719 0.312988 5.53835 0.312988C5.62952 0.312988 5.7277 0.326469 5.81186 0.360171C5.89601 0.393873 5.97315 0.447797 6.04328 0.50846C6.1064 0.569124 6.15549 0.650009 6.19055 0.730894C6.23263 0.811779 6.24665 0.899405 6.24665 0.993771C6.24665 1.0814 6.22561 1.16902 6.19055 1.24991C6.15549 1.33079 6.09938 1.40494 6.02925 1.47234L2.55789 4.80885L3.2171 5.43571L6.02925 8.14536Z" fill="black"/>
</svg>
