<svg width="21" height="21" viewBox="0 0 21 21" fill="none" xmlns="http://www.w3.org/2000/svg">
<g clip-path="url(#clip0_1_1545)">
<path d="M15.4113 13.5765C16.6822 11.8423 17.2514 9.69215 17.0051 7.55627C16.7588 5.42038 15.7151 3.45627 14.0828 2.05687C12.4505 0.657469 10.35 -0.0740105 8.20156 0.00877302C6.05311 0.0915565 4.01514 0.982498 2.49537 2.50335C0.975607 4.0242 0.086124 6.06281 0.00487787 8.21132C-0.0763683 10.3598 0.656614 12.4598 2.05718 14.0911C3.45775 15.7224 5.42261 16.7647 7.55867 17.0095C9.69473 17.2543 11.8445 16.6835 13.5778 15.4114H13.5765C13.615 15.4639 13.6578 15.5142 13.7051 15.5623L18.7582 20.6154C19.0043 20.8617 19.3382 21.0002 19.6863 21.0003C20.0345 21.0004 20.3685 20.8622 20.6147 20.6161C20.861 20.37 20.9994 20.0361 20.9996 19.688C20.9997 19.3398 20.8615 19.0058 20.6154 18.7596L15.5623 13.7064C15.5154 13.6589 15.4649 13.6164 15.4113 13.5765ZM15.75 8.53126C15.75 9.47924 15.5632 10.4179 15.2005 11.2938C14.8377 12.1696 14.306 12.9654 13.6356 13.6357C12.9653 14.306 12.1695 14.8377 11.2937 15.2005C10.4179 15.5633 9.47919 15.75 8.53121 15.75C7.58323 15.75 6.64453 15.5633 5.76871 15.2005C4.89289 14.8377 4.0971 14.306 3.42678 13.6357C2.75646 12.9654 2.22473 12.1696 1.86195 11.2938C1.49918 10.4179 1.31246 9.47924 1.31246 8.53126C1.31246 6.61673 2.073 4.78061 3.42678 3.42683C4.78056 2.07305 6.61668 1.31251 8.53121 1.31251C10.4457 1.31251 12.2819 2.07305 13.6356 3.42683C14.9894 4.78061 15.75 6.61673 15.75 8.53126Z" fill="#016B45"/>
</g>
<defs>
<clipPath id="clip0_1_1545">
<rect width="21" height="21" fill="white"/>
</clipPath>
</defs>
</svg>
