<svg width="22" height="22" viewBox="0 0 22 22" fill="none" xmlns="http://www.w3.org/2000/svg">
<path d="M13.4444 0H20.7778C21.1019 0 21.4128 0.128769 21.642 0.357981C21.8712 0.587192 22 0.898069 22 1.22222V8.55556C22 8.87971 21.8712 9.19059 21.642 9.4198C21.4128 9.64901 21.1019 9.77778 20.7778 9.77778H13.4444C13.1203 9.77778 12.8094 9.64901 12.5802 9.4198C12.351 9.19059 12.2222 8.87971 12.2222 8.55556V1.22222C12.2222 0.898069 12.351 0.587192 12.5802 0.357981C12.8094 0.128769 13.1203 0 13.4444 0ZM14.6667 7.33333H19.5556V2.44444H14.6667V7.33333ZM1.22222 0H8.55556C8.87971 0 9.19059 0.128769 9.4198 0.357981C9.64901 0.587192 9.77778 0.898069 9.77778 1.22222V8.55556C9.77778 8.87971 9.64901 9.19059 9.4198 9.4198C9.19059 9.64901 8.87971 9.77778 8.55556 9.77778H1.22222C0.898069 9.77778 0.587191 9.64901 0.357981 9.4198C0.128769 9.19059 0 8.87971 0 8.55556V1.22222C0 0.898069 0.128769 0.587192 0.357981 0.357981C0.587191 0.128769 0.898069 0 1.22222 0ZM2.44444 7.33333H7.33333V2.44444H2.44444V7.33333ZM13.4444 12.2222H20.7778C21.1019 12.2222 21.4128 12.351 21.642 12.5802C21.8712 12.8094 22 13.1203 22 13.4444V20.7778C22 21.1019 21.8712 21.4128 21.642 21.642C21.4128 21.8712 21.1019 22 20.7778 22H13.4444C13.1203 22 12.8094 21.8712 12.5802 21.642C12.351 21.4128 12.2222 21.1019 12.2222 20.7778V13.4444C12.2222 13.1203 12.351 12.8094 12.5802 12.5802C12.8094 12.351 13.1203 12.2222 13.4444 12.2222ZM14.6667 19.5556H19.5556V14.6667H14.6667V19.5556ZM4.88889 12.2222C7.58511 12.2222 9.77778 14.4149 9.77778 17.1111C9.77778 19.8073 7.58511 22 4.88889 22C2.19267 22 0 19.8073 0 17.1111C0 14.4149 2.19267 12.2222 4.88889 12.2222ZM4.88889 19.5556C6.237 19.5556 7.33333 18.4592 7.33333 17.1111C7.33333 15.763 6.237 14.6667 4.88889 14.6667C3.54078 14.6667 2.44444 15.763 2.44444 17.1111C2.44444 18.4592 3.54078 19.5556 4.88889 19.5556Z" fill="white"/>
</svg>
