<svg width="18" height="21" viewBox="0 0 18 21" fill="none" xmlns="http://www.w3.org/2000/svg">
<path d="M13.2479 2.78591C14.4034 4.0115 15.0935 5.69715 15.1512 7.49247L15.155 7.74368V11.8971V12.0909L15.2354 12.2674L17.07 16.295L17.07 16.295C17.094 16.3476 17.1077 16.4101 17.1065 16.476C17.1054 16.5419 17.0896 16.6031 17.0644 16.6536L17.8637 17.0526L17.0644 16.6536C17.0393 16.704 17.0077 16.7382 16.979 16.7592C16.9567 16.7754 16.9362 16.7839 16.9188 16.7878L16.8667 16.7908H1.10793H1.10764C1.08844 16.7908 1.0652 16.786 1.03902 16.7709C1.01219 16.7555 0.980507 16.7281 0.952651 16.6839C0.924624 16.6395 0.903495 16.5826 0.896174 16.5177L0.00838691 16.6178L0.896174 16.5177C0.889485 16.4583 0.895114 16.3991 0.911185 16.3453L0.938998 16.2756L2.76475 12.2674L2.84513 12.0909V11.8971V7.73684C2.84513 5.89637 3.51196 4.14611 4.67657 2.86774C5.83866 1.59214 7.39598 0.893412 9.00008 0.893412H9.0001C10.5685 0.893384 12.0933 1.5613 13.2479 2.78591ZM7.99317 20.1066H7.99286C7.73672 20.1067 7.47371 20.0012 7.26054 19.7842C7.22929 19.7524 7.19952 19.7186 7.17138 19.6829H10.8287C10.8197 19.6943 10.8105 19.7056 10.8011 19.7167C10.6043 19.9497 10.3523 20.0772 10.1015 20.1025L9.99064 20.1066H7.99317Z" stroke="#016B45" stroke-width="1.78682"/>
</svg>
