<svg width="23" height="30" viewBox="0 0 23 30" fill="none" xmlns="http://www.w3.org/2000/svg">
<path d="M11.5 30C11.5 30 0 19.3388 0 11.25C0 8.26631 1.21161 5.40483 3.36827 3.29505C5.52494 1.18526 8.45001 0 11.5 0C14.55 0 17.4751 1.18526 19.6317 3.29505C21.7884 5.40483 23 8.26631 23 11.25C23 19.3388 11.5 30 11.5 30ZM11.5 16.875C13.025 16.875 14.4875 16.2824 15.5659 15.2275C16.6442 14.1726 17.25 12.7418 17.25 11.25C17.25 9.75816 16.6442 8.32742 15.5659 7.27252C14.4875 6.21763 13.025 5.625 11.5 5.625C9.97501 5.625 8.51247 6.21763 7.43414 7.27252C6.3558 8.32742 5.75 9.75816 5.75 11.25C5.75 12.7418 6.3558 14.1726 7.43414 15.2275C8.51247 16.2824 9.97501 16.875 11.5 16.875Z" fill="white"/>
</svg>
