<svg width="30" height="24" viewBox="0 0 30 24" fill="none" xmlns="http://www.w3.org/2000/svg">
<path d="M0.75 16.5H1.5V11.4328C1.5 10.8375 1.73906 10.2656 2.16094 9.84375L6.84375 5.16094C7.26562 4.73906 7.8375 4.5 8.43281 4.5H10.5V2.25C10.5 1.00781 11.5078 0 12.75 0H24.75C25.9922 0 27 1.00781 27 2.25V4.5H29.625C29.8312 4.5 30 4.66875 30 4.875V5.625C30 5.83125 29.8312 6 29.625 6H16.875C16.6687 6 16.5 6.16875 16.5 6.375V7.125C16.5 7.33125 16.6687 7.5 16.875 7.5H28.125C28.3312 7.5 28.5 7.66875 28.5 7.875V8.625C28.5 8.83125 28.3312 9 28.125 9H18.375C18.1687 9 18 9.16875 18 9.375V10.125C18 10.3313 18.1687 10.5 18.375 10.5H29.625C29.8312 10.5 30 10.6687 30 10.875V11.625C30 11.8313 29.8312 12 29.625 12H19.875C19.6687 12 19.5 12.1688 19.5 12.375V13.125C19.5 13.3312 19.6687 13.5 19.875 13.5H27V19.5C27 21.9844 24.9844 24 22.5 24C20.0156 24 18 21.9844 18 19.5H12C12 21.9844 9.98438 24 7.5 24C5.01562 24 3 21.9844 3 19.5H0.75C0.3375 19.5 -1.90735e-06 19.1625 -1.90735e-06 18.75V17.25C-1.90735e-06 16.8375 0.3375 16.5 0.75 16.5ZM22.5 21.75C23.7422 21.75 24.75 20.7422 24.75 19.5C24.75 18.2578 23.7422 17.25 22.5 17.25C21.2578 17.25 20.25 18.2578 20.25 19.5C20.25 20.7422 21.2578 21.75 22.5 21.75ZM7.5 21.75C8.74219 21.75 9.75 20.7422 9.75 19.5C9.75 18.2578 8.74219 17.25 7.5 17.25C6.25781 17.25 5.25 18.2578 5.25 19.5C5.25 20.7422 6.25781 21.75 7.5 21.75ZM3.75 12H10.5V6.75H8.43281L3.75 11.4328V12Z" fill="white"/>
</svg>
