<svg width="27" height="29" viewBox="0 0 27 29" fill="none" xmlns="http://www.w3.org/2000/svg">
<path d="M1.08 6.49183L12.5031 0.25649C12.8083 0.0882493 13.1513 0 13.5 0C13.8487 0 14.1917 0.0882493 14.4969 0.25649L25.92 6.49442C26.2462 6.67249 26.5185 6.93466 26.7085 7.25357C26.8985 7.57248 26.9992 7.93642 27 8.3074V20.6926C26.9992 21.0636 26.8985 21.4275 26.7085 21.7464C26.5185 22.0653 26.2462 22.3275 25.92 22.5056L14.4969 28.7435C14.1917 28.9118 13.8487 29 13.5 29C13.1513 29 12.8083 28.9118 12.5031 28.7435L1.08 22.5056C0.753778 22.3275 0.481461 22.0653 0.291485 21.7464C0.101509 21.4275 0.000843048 21.0636 0 20.6926V8.30869C0.000144958 7.93706 0.100481 7.57231 0.290493 7.25265C0.480505 6.933 0.753201 6.67021 1.08 6.49183ZM13.5 2.06947L3.06995 7.76739L6.93562 9.87691L17.3657 4.17899L13.5 2.06947ZM13.5 13.4653L23.93 7.76739L19.5283 5.36261L9.09822 11.0605L13.5 13.4653ZM2.07692 20.6978L12.4615 26.3685V15.2563L8.30769 12.9888V17.6093C8.30769 17.884 8.19828 18.1475 8.00353 18.3418C7.80878 18.5361 7.54465 18.6452 7.26923 18.6452C6.99381 18.6452 6.72968 18.5361 6.53493 18.3418C6.34018 18.1475 6.23077 17.884 6.23077 17.6093V11.8544L2.07692 9.58684V20.6926V20.6978Z" fill="white"/>
</svg>
