<svg width="33" height="33" viewBox="0 0 33 33" fill="none" xmlns="http://www.w3.org/2000/svg">
<path d="M20.1667 0H31.1667C31.6529 0 32.1192 0.193154 32.463 0.536971C32.8068 0.880788 33 1.3471 33 1.83333V12.8333C33 13.3196 32.8068 13.7859 32.463 14.1297C32.1192 14.4735 31.6529 14.6667 31.1667 14.6667H20.1667C19.6804 14.6667 19.2141 14.4735 18.8703 14.1297C18.5265 13.7859 18.3333 13.3196 18.3333 12.8333V1.83333C18.3333 1.3471 18.5265 0.880788 18.8703 0.536971C19.2141 0.193154 19.6804 0 20.1667 0ZM22 11H29.3333V3.66667H22V11ZM1.83333 0H12.8333C13.3196 0 13.7859 0.193154 14.1297 0.536971C14.4735 0.880788 14.6667 1.3471 14.6667 1.83333V12.8333C14.6667 13.3196 14.4735 13.7859 14.1297 14.1297C13.7859 14.4735 13.3196 14.6667 12.8333 14.6667H1.83333C1.3471 14.6667 0.880785 14.4735 0.536968 14.1297C0.193152 13.7859 0 13.3196 0 12.8333V1.83333C0 1.3471 0.193152 0.880788 0.536968 0.536971C0.880785 0.193154 1.3471 0 1.83333 0ZM3.66667 11H11V3.66667H3.66667V11ZM20.1667 18.3333H31.1667C31.6529 18.3333 32.1192 18.5265 32.463 18.8703C32.8068 19.2141 33 19.6804 33 20.1667V31.1667C33 31.6529 32.8068 32.1192 32.463 32.463C32.1192 32.8068 31.6529 33 31.1667 33H20.1667C19.6804 33 19.2141 32.8068 18.8703 32.463C18.5265 32.1192 18.3333 31.6529 18.3333 31.1667V20.1667C18.3333 19.6804 18.5265 19.2141 18.8703 18.8703C19.2141 18.5265 19.6804 18.3333 20.1667 18.3333ZM22 29.3333H29.3333V22H22V29.3333ZM7.33333 18.3333C11.3777 18.3333 14.6667 21.6223 14.6667 25.6667C14.6667 29.711 11.3777 33 7.33333 33C3.289 33 0 29.711 0 25.6667C0 21.6223 3.289 18.3333 7.33333 18.3333ZM7.33333 29.3333C9.3555 29.3333 11 27.6888 11 25.6667C11 23.6445 9.3555 22 7.33333 22C5.31117 22 3.66667 23.6445 3.66667 25.6667C3.66667 27.6888 5.31117 29.3333 7.33333 29.3333Z" fill="#016B45"/>
</svg>
