<svg width="43" height="43" viewBox="0 0 43 43" fill="none" xmlns="http://www.w3.org/2000/svg">
<path d="M20.1562 37.709C20.8281 37.709 21.514 37.688 22.2139 37.646C22.5638 38.5698 22.9977 39.4307 23.5156 40.2285C22.9557 40.2845 22.3958 40.3265 21.8359 40.3545C21.276 40.3825 20.7161 40.3965 20.1562 40.3965C18.2806 40.3965 16.4469 40.2425 14.6553 39.9346C14.1374 39.8506 13.5495 39.7316 12.8916 39.5776C12.2337 39.4237 11.5618 39.2207 10.876 38.9688C10.1901 38.7168 9.51823 38.4299 8.86035 38.1079C8.20247 37.786 7.61458 37.401 7.09668 36.9531C6.57878 36.5052 6.16585 36.0223 5.85791 35.5044C5.54997 34.9865 5.389 34.3776 5.375 33.6777V9.49023C5.375 8.86035 5.50798 8.30046 5.77393 7.81055C6.03988 7.32064 6.39681 6.85872 6.84473 6.4248C7.32064 5.94889 7.88753 5.52897 8.54541 5.16504C9.20329 4.80111 9.92415 4.48617 10.708 4.22021C11.4919 3.95426 12.2967 3.72331 13.1226 3.52734C13.9484 3.33138 14.7812 3.18441 15.6211 3.08643C16.4609 2.98844 17.2588 2.91146 18.0146 2.85547C18.7705 2.79948 19.4844 2.77148 20.1562 2.77148C21.1641 2.77148 22.2769 2.82747 23.4946 2.93945C24.7124 3.05143 25.9372 3.2404 27.1689 3.50635C28.4007 3.7723 29.5695 4.15023 30.6753 4.64014C31.7811 5.13005 32.7119 5.72493 33.4678 6.4248C33.9017 6.83073 34.2516 7.29264 34.5176 7.81055C34.7835 8.32845 34.9235 8.88835 34.9375 9.49023V21.5H32.25V13.4795C31.4102 13.9974 30.4933 14.4313 29.4995 14.7812C28.5057 15.1312 27.4769 15.4111 26.4131 15.6211C25.3493 15.8311 24.2855 15.978 23.2217 16.062C22.1579 16.146 21.1361 16.195 20.1562 16.209C19.1904 16.209 18.1756 16.167 17.1118 16.083C16.048 15.999 14.9772 15.8451 13.8994 15.6211C12.8216 15.3971 11.7928 15.1172 10.813 14.7812C9.83317 14.4453 8.91634 14.0114 8.0625 13.4795V33.6777C8.0625 33.9577 8.16048 34.2166 8.35645 34.4546C8.55241 34.6925 8.75537 34.8885 8.96533 35.0425C9.62321 35.5604 10.4211 35.9873 11.3589 36.3232C12.2967 36.6592 13.2905 36.9321 14.3403 37.1421C15.3901 37.3521 16.4189 37.499 17.4268 37.583C18.4346 37.667 19.3444 37.709 20.1562 37.709ZM20.1562 5.45898C19.4424 5.45898 18.7005 5.47998 17.9307 5.52197C17.1608 5.56396 16.377 5.64795 15.5791 5.77393C14.7812 5.8999 14.0114 6.05387 13.2695 6.23584C12.5277 6.41781 11.8208 6.64876 11.1489 6.92871C10.939 7.0127 10.659 7.13867 10.3091 7.30664C9.95915 7.47461 9.61621 7.67757 9.28027 7.91553C8.94434 8.15348 8.65739 8.39844 8.41943 8.65039C8.18148 8.90234 8.0625 9.18229 8.0625 9.49023C8.0625 9.60221 8.0835 9.70719 8.12549 9.80518C8.16748 9.90316 8.22347 10.0011 8.29346 10.0991C8.6014 10.547 9.04232 10.946 9.61621 11.2959C10.1901 11.6458 10.834 11.9468 11.5479 12.1987C12.2617 12.4507 13.0176 12.6606 13.8154 12.8286C14.6133 12.9966 15.4041 13.1296 16.188 13.2275C16.9718 13.3255 17.6997 13.4025 18.3716 13.4585C19.0435 13.5145 19.6383 13.5355 20.1562 13.5215C20.6462 13.5215 21.234 13.5005 21.9199 13.4585C22.6058 13.4165 23.3407 13.3465 24.1245 13.2485C24.9084 13.1506 25.6922 13.0106 26.4761 12.8286C27.2599 12.6466 28.0228 12.4367 28.7646 12.1987C29.5065 11.9608 30.1434 11.6668 30.6753 11.3169C31.2072 10.967 31.6551 10.561 32.019 10.0991C32.089 10.0011 32.145 9.90316 32.187 9.80518C32.229 9.70719 32.25 9.60221 32.25 9.49023C32.25 9.19629 32.131 8.91634 31.8931 8.65039C31.6551 8.38444 31.3682 8.13949 31.0322 7.91553C30.6963 7.69157 30.3534 7.49561 30.0034 7.32764C29.6535 7.15967 29.3735 7.02669 29.1636 6.92871C28.5057 6.66276 27.7988 6.4388 27.043 6.25684C26.2871 6.07487 25.5173 5.9209 24.7334 5.79492C23.9495 5.66895 23.1727 5.58496 22.4028 5.54297C21.633 5.50098 20.8841 5.47298 20.1562 5.45898ZM40.1865 32.313C40.2705 32.7329 40.3125 33.1598 40.3125 33.5938C40.3125 34.0277 40.2705 34.4546 40.1865 34.8745L42.79 35.9453L41.7612 38.4438L39.1577 37.3521C38.6678 38.0659 38.0659 38.6678 37.3521 39.1577L38.4438 41.7612L35.9453 42.79L34.8745 40.1865C34.4546 40.2705 34.0277 40.3125 33.5938 40.3125C33.1598 40.3125 32.7329 40.2705 32.313 40.1865L31.2422 42.79L28.7437 41.7612L29.8354 39.1577C29.1216 38.6678 28.5197 38.0659 28.0298 37.3521L25.4263 38.4438L24.3975 35.9453L27.001 34.8745C26.917 34.4546 26.875 34.0277 26.875 33.5938C26.875 33.1598 26.917 32.7329 27.001 32.313L24.3975 31.2422L25.4263 28.7437L28.0298 29.8354C28.5197 29.1216 29.1216 28.5197 29.8354 28.0298L28.7437 25.4263L31.2422 24.3975L32.313 27.001C32.7329 26.917 33.1598 26.875 33.5938 26.875C34.0277 26.875 34.4546 26.917 34.8745 27.001L35.9453 24.3975L38.4438 25.4263L37.3521 28.0298C38.0659 28.5197 38.6678 29.1216 39.1577 29.8354L41.7612 28.7437L42.79 31.2422L40.1865 32.313ZM33.5938 37.625C34.1536 37.625 34.6785 37.52 35.1685 37.3101C35.6584 37.1001 36.0853 36.8132 36.4492 36.4492C36.8132 36.0853 37.1001 35.6584 37.3101 35.1685C37.52 34.6785 37.625 34.1536 37.625 33.5938C37.625 33.0339 37.52 32.509 37.3101 32.019C37.1001 31.5291 36.8132 31.1022 36.4492 30.7383C36.0853 30.3743 35.6584 30.0874 35.1685 29.8774C34.6785 29.6675 34.1536 29.5625 33.5938 29.5625C33.0339 29.5625 32.509 29.6675 32.019 29.8774C31.5291 30.0874 31.1022 30.3743 30.7383 30.7383C30.3743 31.1022 30.0874 31.5291 29.8774 32.019C29.6675 32.509 29.5625 33.0339 29.5625 33.5938C29.5625 34.1536 29.6675 34.6785 29.8774 35.1685C30.0874 35.6584 30.3743 36.0853 30.7383 36.4492C31.1022 36.8132 31.5291 37.1001 32.019 37.3101C32.509 37.52 33.0339 37.625 33.5938 37.625Z" fill="#016B45"/>
</svg>
