<svg width="30" height="24" viewBox="0 0 30 24" fill="none" xmlns="http://www.w3.org/2000/svg">
<path d="M2 0H28C28 0 30 1.27157e-07 30 1.6V3.2C30 3.2 30 4.8 28 4.8H2C2 4.8 0 4.8 0 3.2V1.6C0 1.6 0 0 2 0Z" fill="white"/>
<path d="M2 9.6001H28C28 9.6001 30 9.6001 30 11.2002V12.8002C30 12.8002 30 14.4002 28 14.4002H2C2 14.4002 0 14.4002 0 12.8002V11.2002C0 11.2002 0 9.6001 2 9.6001Z" fill="white"/>
<path d="M2 19H28C28 19 30 19 30 20.6V22.2C30 22.2 30 23.8 28 23.8H2C2 23.8 0 23.8 0 22.2V20.6C0 20.6 0 19 2 19Z" fill="white"/>
</svg>
