<svg width="29" height="23" viewBox="0 0 29 23" fill="none" xmlns="http://www.w3.org/2000/svg">
<path d="M29 3.68C29 3.68 29 0 25.375 0H3.625C3.625 0 0 0 0 3.68V14.72C0 14.72 0 18.4 3.625 18.4H10.875C10.875 19.6267 10.724 20.5467 10.4219 21.16H9.0625C8.82215 21.16 8.59164 21.2569 8.42168 21.4295C8.25173 21.602 8.15625 21.836 8.15625 22.08C8.15625 22.324 8.25173 22.558 8.42168 22.7305C8.59164 22.9031 8.82215 23 9.0625 23H19.9375C20.1779 23 20.4084 22.9031 20.5783 22.7305C20.7483 22.558 20.8438 22.324 20.8438 22.08C20.8438 21.836 20.7483 21.602 20.5783 21.4295C20.4084 21.2569 20.1779 21.16 19.9375 21.16H18.5781C18.276 20.5467 18.125 19.6267 18.125 18.4H25.375C25.375 18.4 29 18.4 29 14.72V3.68ZM26.4661 2.1068C26.6651 2.24765 26.8239 2.43933 26.9265 2.66248C27.0792 2.98721 27.1679 3.33912 27.1875 3.6984V14.72C27.1875 15.318 27.0461 15.6437 26.9247 15.8277C26.7978 16.019 26.6154 16.1748 26.3773 16.295C26.0713 16.4437 25.7406 16.533 25.4022 16.5582L25.3569 16.56H3.625C3.03594 16.56 2.71512 16.4165 2.53387 16.2932C2.3349 16.1524 2.17609 15.9607 2.0735 15.7375C1.92702 15.4269 1.83911 15.0911 1.81431 14.7476L1.8125 14.7016V3.68C1.8125 3.082 1.95388 2.75632 2.07531 2.57232C2.21405 2.37032 2.40288 2.2091 2.62269 2.10496C2.94257 1.94996 3.28922 1.85995 3.64313 1.84H25.375C25.9641 1.84 26.2849 1.98352 26.4661 2.1068Z" fill="white"/>
</svg>
