<svg width="26" height="28" viewBox="0 0 26 28" fill="none" xmlns="http://www.w3.org/2000/svg">
<path d="M2.78835 16.1763V11.1696C2.78835 6.67801 5.83523 2.89432 9.96281 1.75642C10.3714 0.726022 11.3698 0 12.5495 0C13.7292 0 14.7277 0.726022 15.1362 1.75642C19.2638 2.89571 22.3107 6.67801 22.3107 11.1696V16.1763L24.691 18.5596C24.9526 18.8214 25.0995 19.1765 25.0996 19.5468V22.3391C25.0996 22.7094 24.9527 23.0646 24.6912 23.3264C24.4297 23.5882 24.075 23.7353 23.7052 23.7353H1.39389C1.02406 23.7353 0.669374 23.5882 0.407864 23.3264C0.146353 23.0646 -0.00056076 22.7094 -0.00056076 22.3391V19.5468C-0.000480652 19.1765 0.146484 18.8214 0.408014 18.5596L2.78835 16.1763ZM2.78835 20.943H22.3107V20.1248L19.9304 17.7415C19.6688 17.4797 19.5219 17.1246 19.5218 16.7544V11.1696C19.5218 7.32026 16.394 4.18859 12.5495 4.18859C8.70502 4.18859 5.57726 7.32026 5.57726 11.1696V16.7544C5.57726 17.1257 5.43084 17.4804 5.16868 17.7415L2.78835 20.1248V20.943ZM12.5495 27.9239C11.6859 27.925 10.8435 27.6567 10.1392 27.1563C9.43498 26.6558 8.90395 25.9481 8.61995 25.1315H16.4791C16.1951 25.9481 15.6641 26.6558 14.9598 27.1563C14.2556 27.6567 13.4131 27.925 12.5495 27.9239Z" fill="white"/>
<rect width="20.0801" height="4.70628" transform="matrix(-1 0 0 1 22.5898 16.9424)" fill="white"/>
<rect width="14.4326" height="12.5501" transform="matrix(-1 0 0 1 19.7656 6.90283)" fill="white"/>
<rect width="11.2951" height="4.07878" transform="matrix(-1 0 0 1 18.1973 3.76514)" fill="white"/>
</svg>
