<svg width="1080" height="1024" viewBox="0 0 1080 1024" fill="none" xmlns="http://www.w3.org/2000/svg">
<path d="M708.404 557.769C317.756 654.925 0 900.096 0 1042H1080V-50L1079.02 -44.8544C1010.8 313.303 976.958 490.979 708.404 557.769Z" fill="#1A7F5D"/>
<path fill-rule="evenodd" clip-rule="evenodd" d="M428.511 1527.41L433.858 1449.96C439.205 1372.51 449.9 1217.62 491.244 1104.69C532.588 991.757 604.582 920.783 702.846 885.774C801.111 850.765 902.595 867.649 992.102 820.652C1081.61 773.654 1159.14 662.775 1186.38 615.299L1213.62 567.824L1397.52 819.577L1357.14 849.07C1316.77 878.563 1236.02 937.549 1155.27 996.535C1074.52 1055.52 993.766 1114.51 913.015 1173.49C832.264 1232.48 751.514 1291.46 670.763 1350.45C590.012 1409.44 509.261 1468.42 468.886 1497.91L428.511 1527.41Z" fill="#016B45"/>
</svg>
