<svg width="1440" height="1024" viewBox="0 0 1440 1024" fill="none" xmlns="http://www.w3.org/2000/svg">
<path d="M658.679 634.273C481.938 673.459 168.098 986.485 25.8049 1178.46L1604.97 1016.75L1490.72 19.197C1452.54 -56.4697 1411.15 3.55445 1407.17 28.7662C1402.01 61.4863 1445.62 174.86 1321.9 217.777C1198.17 260.694 1170.28 353.703 1079 500C987.721 646.297 863.641 588.831 658.679 634.273Z" fill="#1A7F5D"/>
<path fill-rule="evenodd" clip-rule="evenodd" d="M464.465 1353.63L479.792 1282.48C495.118 1211.34 525.771 1069.04 580.421 966.316C635.071 863.589 713.717 800.426 812.932 771.176C912.147 741.926 1007.64 760.554 1100 720C1192.36 679.446 1281.58 579.708 1314.05 536.822L1346.52 493.937L1490.5 731.325L1447.74 757.255C1404.99 783.184 1319.49 835.042 1233.99 886.901C1148.49 938.76 1062.98 990.618 977.48 1042.48C891.978 1094.34 806.475 1146.19 720.973 1198.05C635.47 1249.91 549.968 1301.77 507.216 1327.7L464.465 1353.63Z" fill="#1A7F5D"/>
<path fill-rule="evenodd" clip-rule="evenodd" d="M893 1024L947.7 983.1C1002.4 942.2 1111.8 860.4 1166.5 778.6C1221.2 696.8 1221.2 615 1221.2 533.2C1221.2 451.4 1221.2 369.6 1248.55 287.8C1275.9 206 1330.6 124.2 1348.83 42.4C1367.07 -39.4 1348.83 -121.2 1339.72 -162.1L1330.6 -203L1440 -203V-162.1C1440 -121.2 1440 -39.4 1440 42.4C1440 124.2 1440 206 1440 287.8C1440 369.6 1440 451.4 1440 533.2C1440 615 1440 696.8 1440 778.6C1440 860.4 1440 942.2 1440 983.1V1024L893 1024Z" fill="#016B45"/>
</svg>
