<svg width="1440" height="1024" viewBox="0 0 1440 1024" fill="none" xmlns="http://www.w3.org/2000/svg">
<path d="M805.712 995.285C519.107 1079.85 35.3589 1095.93 -55.564 996.585C-93.0252 687.241 260.389 329.271 411.503 260.528C409.429 289.939 411.387 290.463 415.298 309.049C519.5 189 778.1 121.363 896.294 88.5787C891.998 107.935 900.642 107.902 896.143 127.583C1053.8 35.5716 1367.81 -2.82739 1446.68 -3.128C1403.23 335.045 1280.66 459.684 1223.03 556.819C1237.6 561.015 1234.36 559.965 1260.09 563.245C1034.2 857.768 844.089 951.758 755.811 958.789C759.059 973.313 776.128 987.072 805.712 995.285Z" fill="white"/>
</svg>
