<svg width="1440" height="1024" viewBox="0 0 1440 1024" fill="none" xmlns="http://www.w3.org/2000/svg">
<path d="M1046.04 1275.76C558.409 1422.58 -268.443 1437.6 -426.928 1252.29C-500.285 682.647 93.3956 35.3709 349.776 -86.4286C347.113 -32.4392 350.476 -31.4174 357.723 2.85811C532.331 -214.642 972.574 -331.183 1173.73 -387.885C1166.97 -352.441 1181.75 -352.242 1174.64 -316.206C1441.52 -480.574 1977.4 -541.716 2112.28 -539.9C2048.13 80.2996 1842.25 305.684 1746.59 482.47C1771.63 490.619 1766.06 488.591 1810.17 495.393C1432.69 1029.89 1110.36 1196.92 959.599 1207.19C965.59 1233.98 995.194 1259.78 1046.04 1275.76Z" fill="#1A7F5D"/>
<path d="M988.072 1174.48C528.607 1310.05 -246.906 1335.82 -392.667 1176.56C-452.722 680.643 113.847 106.768 356.103 -3.43508C352.779 43.7141 355.917 44.5542 362.186 74.3502C529.237 -118.104 943.807 -226.536 1133.29 -279.093C1126.4 -248.062 1140.26 -248.115 1133.05 -216.564C1385.79 -364.071 1889.19 -425.629 2015.63 -426.111C1945.98 116.026 1749.48 315.839 1657.08 471.559C1680.44 478.286 1675.25 476.602 1716.5 481.861C1354.38 954.019 1049.6 1104.7 908.075 1115.97C913.282 1139.25 940.645 1161.31 988.072 1174.48Z" fill="#9CCC7F"/>
<path d="M929.786 1121.58C524.923 1241.04 -158.431 1263.75 -286.871 1123.42C-339.79 686.43 159.451 180.752 372.918 83.6449C369.989 125.191 372.754 125.931 378.279 152.187C525.477 -17.3975 890.781 -112.943 1057.75 -159.255C1051.68 -131.912 1063.89 -131.958 1057.53 -104.156C1280.24 -234.134 1723.82 -288.377 1835.23 -288.802C1773.86 188.91 1600.72 364.977 1519.29 502.192C1539.88 508.12 1535.3 506.636 1571.65 511.27C1252.56 927.319 983.998 1060.09 859.296 1070.02C863.884 1090.54 887.995 1109.98 929.786 1121.58Z" fill="#DAE8D1"/>
<path d="M868.549 1066.63C519.693 1169.57 -69.129 1189.14 -179.801 1068.22C-225.399 691.682 204.778 255.958 388.716 172.284C386.192 208.083 388.574 208.721 393.335 231.344C520.17 85.2198 834.94 2.89129 978.806 -37.0136C973.578 -13.4531 984.098 -13.4931 978.622 10.4629C1170.52 -101.534 1552.74 -148.274 1648.74 -148.64C1595.86 262.987 1446.66 414.698 1376.51 532.932C1394.24 538.039 1390.3 536.76 1421.62 540.753C1146.67 899.248 915.261 1013.65 807.81 1022.21C811.763 1039.89 832.539 1056.64 868.549 1066.63Z" fill="#E6F1ED"/>
<path d="M805.712 995.285C519.107 1079.85 35.3589 1095.93 -55.564 996.585C-93.0252 687.241 260.389 329.271 411.503 260.528C409.429 289.939 411.387 290.463 415.298 309.049C519.5 189 778.1 121.363 896.294 88.5787C891.998 107.935 900.642 107.902 896.143 127.583C1053.8 35.5716 1367.81 -2.82739 1446.68 -3.128C1403.23 335.045 1280.66 459.684 1223.03 556.819C1237.6 561.015 1234.36 559.965 1260.09 563.245C1034.2 857.768 844.089 951.758 755.811 958.789C759.059 973.313 776.128 987.072 805.712 995.285Z" fill="white"/>
</svg>
